ply
format ascii 1.0
comment VCGLIB generated
element vertex 456
property float x
property float y
property float z
element face 0
property list uchar int vertex_indices
end_header
-0.110495 -0.195487 1.01265 
-0.108764 -0.195487 1.01265 
-0.107033 -0.195487 1.01265 
-0.098379 -0.195487 1.01265 
-0.113616 -0.193177 1.00962 
-0.111891 -0.193177 1.00962 
-0.110495 -0.193756 1.01265 
-0.108764 -0.193756 1.01265 
-0.107033 -0.193756 1.01265 
-0.105302 -0.193756 1.01265 
-0.103572 -0.193756 1.01265 
-0.101841 -0.193756 1.01265 
-0.10011 -0.193756 1.01265 
-0.098379 -0.193756 1.01265 
-0.0966481 -0.193756 1.01265 
-0.0949173 -0.193756 1.01265 
-0.0931864 -0.193756 1.01265 
-0.0914555 -0.193756 1.01265 
-0.0879938 -0.193756 1.01265 
-0.0862629 -0.193756 1.01265 
-0.113616 -0.191451 1.00962 
-0.111891 -0.191451 1.00962 
-0.110165 -0.191451 1.00962 
-0.108764 -0.192025 1.01265 
-0.107033 -0.192025 1.01265 
-0.105302 -0.192025 1.01265 
-0.103572 -0.192025 1.01265 
-0.101841 -0.192025 1.01265 
-0.10011 -0.192025 1.01265 
-0.0986748 -0.192602 1.01569 
-0.0969387 -0.192602 1.01569 
-0.0952026 -0.192602 1.01569 
-0.0931864 -0.192025 1.01265 
-0.0914555 -0.192025 1.01265 
-0.0897247 -0.192025 1.01265 
-0.0879938 -0.192025 1.01265 
-0.0862629 -0.192025 1.01265 
-0.113616 -0.189725 1.00962 
-0.111891 -0.189725 1.00962 
-0.110165 -0.189725 1.00962 
-0.108764 -0.190294 1.01265 
-0.106714 -0.189725 1.00962 
-0.105302 -0.190294 1.01265 
-0.103572 -0.190294 1.01265 
-0.101841 -0.190294 1.01265 
-0.10011 -0.190294 1.01265 
-0.098379 -0.190294 1.01265 
-0.0969387 -0.190866 1.01569 
-0.0949173 -0.190294 1.01265 
-0.0931864 -0.190294 1.01265 
-0.0914555 -0.190294 1.01265 
-0.0897247 -0.190294 1.01265 
-0.0879938 -0.190294 1.01265 
-0.0862629 -0.190294 1.01265 
-0.0845321 -0.190294 1.01265 
-0.0825538 -0.189725 1.00962 
-0.0808281 -0.189725 1.00962 
-0.0791024 -0.189725 1.00962 
-0.113278 -0.18744 1.00661 
-0.111557 -0.18744 1.00661 
-0.109837 -0.18744 1.00661 
-0.108439 -0.188 1.00962 
-0.106714 -0.188 1.00962 
-0.104988 -0.188 1.00962 
-0.103262 -0.188 1.00962 
-0.101536 -0.188 1.00962 
-0.0998107 -0.188 1.00962 
-0.098379 -0.188563 1.01265 
-0.0966481 -0.188563 1.01265 
-0.0949173 -0.188563 1.01265 
-0.0931864 -0.188563 1.01265 
-0.0914555 -0.188563 1.01265 
-0.0897247 -0.188563 1.01265 
-0.0879938 -0.188563 1.01265 
-0.0862629 -0.188563 1.01265 
-0.0845321 -0.188563 1.01265 
-0.0828012 -0.188563 1.01265 
-0.0810703 -0.188563 1.01265 
-0.0791024 -0.188 1.00962 
-0.0773767 -0.188 1.00962 
-0.111557 -0.185719 1.00661 
-0.109837 -0.185719 1.00661 
-0.108116 -0.185719 1.00661 
-0.106714 -0.186274 1.00962 
-0.104988 -0.186274 1.00962 
-0.103262 -0.186274 1.00962 
-0.101536 -0.186274 1.00962 
-0.0998107 -0.186274 1.00962 
-0.098379 -0.186832 1.01265 
-0.0966481 -0.186832 1.01265 
-0.0949173 -0.186832 1.01265 
-0.0931864 -0.186832 1.01265 
-0.0914555 -0.186832 1.01265 
-0.0894566 -0.186274 1.00962 
-0.0879938 -0.186832 1.01265 
-0.0862629 -0.186832 1.01265 
-0.0845321 -0.186832 1.01265 
-0.0825538 -0.186274 1.00962 
-0.0810703 -0.186832 1.01265 
-0.0791024 -0.186274 1.00962 
-0.0773767 -0.186274 1.00962 
-0.075651 -0.186274 1.00962 
-0.0737051 -0.185719 1.00661 
-0.0719845 -0.185719 1.00661 
-0.111557 -0.183998 1.00661 
-0.109837 -0.183998 1.00661 
-0.108116 -0.183998 1.00661 
-0.106396 -0.183998 1.00661 
-0.104675 -0.183998 1.00661 
-0.103262 -0.184548 1.00962 
-0.101536 -0.184548 1.00962 
-0.0998107 -0.184548 1.00962 
-0.098085 -0.184548 1.00962 
-0.0966481 -0.185101 1.01265 
-0.0949173 -0.185101 1.01265 
-0.092908 -0.184548 1.00962 
-0.0914555 -0.185101 1.01265 
-0.0897247 -0.185101 1.01265 
-0.0879938 -0.185101 1.01265 
-0.0862629 -0.185101 1.01265 
-0.0845321 -0.185101 1.01265 
-0.0828012 -0.185101 1.01265 
-0.081314 -0.185658 1.01569 
-0.0793395 -0.185101 1.01265 
-0.0773767 -0.184548 1.00962 
-0.075651 -0.184548 1.00962 
-0.0739253 -0.184548 1.00962 
-0.0719845 -0.183998 1.00661 
-0.070264 -0.183998 1.00661 
-0.10951 -0.181736 1.00362 
-0.108116 -0.182278 1.00661 
-0.106396 -0.182278 1.00661 
-0.104675 -0.182278 1.00661 
-0.102954 -0.182278 1.00661 
-0.101234 -0.182278 1.00661 
-0.0995134 -0.182278 1.00661 
-0.0977928 -0.182278 1.00661 
-0.0963593 -0.182823 1.00962 
-0.0946337 -0.182823 1.00962 
-0.0926312 -0.182278 1.00661 
-0.0911823 -0.182823 1.00962 
-0.0894566 -0.182823 1.00962 
-0.0877309 -0.182823 1.00962 
-0.0860052 -0.182823 1.00962 
-0.0842795 -0.182823 1.00962 
-0.0825538 -0.182823 1.00962 
-0.0810703 -0.18337 1.01265 
-0.0793395 -0.18337 1.01265 
-0.0773767 -0.182823 1.00962 
-0.075651 -0.182823 1.00962 
-0.0739253 -0.182823 1.00962 
-0.0721996 -0.182823 1.00962 
-0.070264 -0.182278 1.00661 
-0.0685434 -0.182278 1.00661 
-0.10951 -0.180021 1.00362 
-0.107795 -0.180021 1.00362 
-0.10608 -0.180021 1.00362 
-0.104364 -0.180021 1.00362 
-0.102649 -0.180021 1.00362 
-0.100933 -0.180021 1.00362 
-0.0992178 -0.180021 1.00362 
-0.0977928 -0.180557 1.00661 
-0.0960723 -0.180557 1.00661 
-0.0943517 -0.180557 1.00661 
-0.0926312 -0.180557 1.00661 
-0.0909106 -0.180557 1.00661 
-0.0891901 -0.180557 1.00661 
-0.0874695 -0.180557 1.00661 
-0.085749 -0.180557 1.00661 
-0.0840284 -0.180557 1.00661 
-0.0825538 -0.181097 1.00962 
-0.0808281 -0.181097 1.00962 
-0.0793395 -0.18164 1.01265 
-0.0776086 -0.18164 1.01265 
-0.075651 -0.181097 1.00962 
-0.0739253 -0.181097 1.00962 
-0.0721996 -0.181097 1.00962 
-0.070264 -0.180557 1.00661 
-0.0685434 -0.180557 1.00661 
-0.0666244 -0.180021 1.00362 
-0.0647167 -0.179488 1.00065 
-0.10951 -0.178306 1.00362 
-0.107795 -0.178306 1.00362 
-0.10608 -0.178306 1.00362 
-0.104364 -0.178306 1.00362 
-0.102649 -0.178306 1.00362 
-0.100933 -0.178306 1.00362 
-0.0992178 -0.178306 1.00362 
-0.0975024 -0.178306 1.00362 
-0.0957869 -0.178306 1.00362 
-0.0940715 -0.178306 1.00362 
-0.092356 -0.178306 1.00362 
-0.0906406 -0.178306 1.00362 
-0.0889251 -0.178306 1.00362 
-0.0874695 -0.178837 1.00661 
-0.0854943 -0.178306 1.00362 
-0.0837788 -0.178306 1.00362 
-0.0823078 -0.178837 1.00661 
-0.0808281 -0.179371 1.00962 
-0.0791024 -0.179371 1.00962 
-0.0776086 -0.179909 1.01265 
-0.075651 -0.179371 1.00962 
-0.0739253 -0.179371 1.00962 
-0.0721996 -0.179371 1.00962 
-0.0704739 -0.179371 1.00962 
-0.0685434 -0.178837 1.00661 
-0.0666244 -0.178306 1.00362 
-0.0647167 -0.177777 1.00065 
-0.10951 -0.17659 1.00362 
-0.107795 -0.17659 1.00362 
-0.106396 -0.177116 1.00661 
-0.104364 -0.17659 1.00362 
-0.102649 -0.17659 1.00362 
-0.100933 -0.17659 1.00362 
-0.098924 -0.176067 1.00065 
-0.0972136 -0.176067 1.00065 
-0.0955032 -0.176067 1.00065 
-0.0937929 -0.176067 1.00065 
-0.0920825 -0.176067 1.00065 
-0.0903721 -0.176067 1.00065 
-0.0889251 -0.17659 1.00362 
-0.0872097 -0.17659 1.00362 
-0.0854943 -0.17659 1.00362 
-0.0837788 -0.17659 1.00362 
-0.0823078 -0.177116 1.00661 
-0.0808281 -0.177645 1.00962 
-0.0791024 -0.177645 1.00962 
-0.0776086 -0.178178 1.01265 
-0.075651 -0.177645 1.00962 
-0.0739253 -0.177645 1.00962 
-0.0721996 -0.177645 1.00962 
-0.070264 -0.177116 1.00661 
-0.0685434 -0.177116 1.00661 
-0.0664271 -0.176067 1.00065 
-0.0647167 -0.176067 1.00065 
-0.0628203 -0.175547 0.997695 
-0.107795 -0.174875 1.00362 
-0.10608 -0.174875 1.00362 
-0.104364 -0.174875 1.00362 
-0.102649 -0.174875 1.00362 
-0.100634 -0.174357 1.00065 
-0.0986319 -0.173842 0.997695 
-0.0969265 -0.173842 0.997695 
-0.0955032 -0.174357 1.00065 
-0.0935159 -0.173842 0.997695 
-0.0920825 -0.174357 1.00065 
-0.0901053 -0.173842 0.997695 
-0.0886618 -0.174357 1.00065 
-0.0872097 -0.174875 1.00362 
-0.0854943 -0.174875 1.00362 
-0.0835307 -0.174357 1.00065 
-0.0820634 -0.174875 1.00362 
-0.0805873 -0.175396 1.00661 
-0.0788667 -0.175396 1.00661 
-0.0773767 -0.17592 1.00962 
-0.0754256 -0.175396 1.00661 
-0.0737051 -0.175396 1.00661 
-0.0719845 -0.175396 1.00661 
-0.070264 -0.175396 1.00661 
-0.0683398 -0.174875 1.00362 
-0.0664271 -0.174357 1.00065 
-0.0645256 -0.173842 0.997695 
-0.0626353 -0.17333 0.994757 
-0.0609351 -0.17333 0.994757 
-0.107476 -0.172646 1.00065 
-0.105765 -0.172646 1.00065 
-0.104055 -0.172646 1.00065 
-0.102345 -0.172646 1.00065 
-0.100337 -0.172137 0.997695 
-0.0983415 -0.17163 0.994757 
-0.0966412 -0.17163 0.994757 
-0.0952212 -0.172137 0.997695 
-0.0935159 -0.172137 0.997695 
-0.0918106 -0.172137 0.997695 
-0.0901053 -0.172137 0.997695 
-0.0884 -0.172137 0.997695 
-0.0869514 -0.172646 1.00065 
-0.085241 -0.172646 1.00065 
-0.0835307 -0.172646 1.00065 
-0.0818203 -0.172646 1.00065 
-0.0803479 -0.173159 1.00362 
-0.0786325 -0.173159 1.00362 
-0.0771462 -0.173675 1.00661 
-0.0752016 -0.173159 1.00362 
-0.0734861 -0.173159 1.00362 
-0.0719845 -0.173675 1.00661 
-0.0700553 -0.173159 1.00362 
-0.0683398 -0.173159 1.00362 
-0.0664271 -0.172646 1.00065 
-0.0645256 -0.172137 0.997695 
-0.0626353 -0.17163 0.994757 
-0.0609351 -0.17163 0.994757 
-0.107476 -0.170936 1.00065 
-0.105765 -0.170936 1.00065 
-0.104055 -0.170936 1.00065 
-0.102345 -0.170936 1.00065 
-0.100337 -0.170431 0.997695 
-0.0986319 -0.170431 0.997695 
-0.0969265 -0.170431 0.997695 
-0.0952212 -0.170431 0.997695 
-0.0935159 -0.170431 0.997695 
-0.0920825 -0.170936 1.00065 
-0.0901053 -0.170431 0.997695 
-0.0884 -0.170431 0.997695 
-0.0869514 -0.170936 1.00065 
-0.085241 -0.170936 1.00065 
-0.083284 -0.170431 0.997695 
-0.0815787 -0.170431 0.997695 
-0.08011 -0.170936 1.00065 
-0.0786325 -0.171444 1.00362 
-0.076917 -0.171444 1.00362 
-0.0752016 -0.171444 1.00362 
-0.0734861 -0.171444 1.00362 
-0.0717707 -0.171444 1.00362 
-0.0700553 -0.171444 1.00362 
-0.0683398 -0.171444 1.00362 
-0.0662309 -0.170431 0.997695 
-0.0645256 -0.170431 0.997695 
-0.0626353 -0.16993 0.994757 
-0.0609351 -0.16993 0.994757 
-0.105765 -0.169226 1.00065 
-0.104055 -0.169226 1.00065 
-0.102345 -0.169226 1.00065 
-0.100337 -0.168726 0.997695 
-0.0986319 -0.168726 0.997695 
-0.0966412 -0.168229 0.994757 
-0.0952212 -0.168726 0.997695 
-0.0935159 -0.168726 0.997695 
-0.0918106 -0.168726 0.997695 
-0.0901053 -0.168726 0.997695 
-0.0881397 -0.168229 0.994757 
-0.0866947 -0.168726 0.997695 
-0.0849894 -0.168726 0.997695 
-0.083284 -0.168726 0.997695 
-0.0815787 -0.168726 0.997695 
-0.0798734 -0.168726 0.997695 
-0.0783996 -0.169226 1.00065 
-0.076917 -0.169728 1.00362 
-0.0752016 -0.169728 1.00362 
-0.0734861 -0.169728 1.00362 
-0.0717707 -0.169728 1.00362 
-0.0700553 -0.169728 1.00362 
-0.0683398 -0.169728 1.00362 
-0.0664271 -0.169226 1.00065 
-0.0645256 -0.168726 0.997695 
-0.0626353 -0.168229 0.994757 
-0.0609351 -0.168229 0.994757 
-0.105453 -0.167021 0.997695 
-0.104055 -0.167515 1.00065 
-0.102345 -0.167515 1.00065 
-0.100337 -0.167021 0.997695 
-0.0986319 -0.167021 0.997695 
-0.0966412 -0.166529 0.994757 
-0.0952212 -0.167021 0.997695 
-0.0935159 -0.167021 0.997695 
-0.0918106 -0.167021 0.997695 
-0.0901053 -0.167021 0.997695 
-0.0881397 -0.166529 0.994757 
-0.0866947 -0.167021 0.997695 
-0.0849894 -0.167021 0.997695 
-0.083284 -0.167021 0.997695 
-0.0815787 -0.167021 0.997695 
-0.0798734 -0.167021 0.997695 
-0.0783996 -0.167515 1.00065 
-0.0766892 -0.167515 1.00065 
-0.0749789 -0.167515 1.00065 
-0.0732685 -0.167515 1.00065 
-0.0715582 -0.167515 1.00065 
-0.0698478 -0.167515 1.00065 
-0.0681374 -0.167515 1.00065 
-0.0662309 -0.167021 0.997695 
-0.0643356 -0.166529 0.994757 
-0.0626353 -0.166529 0.994757 
-0.0609351 -0.166529 0.994757 
-0.0590609 -0.16604 0.991837 
-0.103748 -0.165315 0.997695 
-0.102042 -0.165315 0.997695 
-0.100337 -0.165315 0.997695 
-0.0986319 -0.165315 0.997695 
-0.0966412 -0.164829 0.994757 
-0.0949409 -0.164829 0.994757 
-0.0932406 -0.164829 0.994757 
-0.0918106 -0.165315 0.997695 
-0.08984 -0.164829 0.994757 
-0.0881397 -0.164829 0.994757 
-0.0866947 -0.165315 0.997695 
-0.0849894 -0.165315 0.997695 
-0.083284 -0.165315 0.997695 
-0.0815787 -0.165315 0.997695 
-0.0798734 -0.165315 0.997695 
-0.0783996 -0.165805 1.00065 
-0.0766892 -0.165805 1.00065 
-0.0749789 -0.165805 1.00065 
-0.0730522 -0.165315 0.997695 
-0.0713469 -0.165315 0.997695 
-0.0696415 -0.165315 0.997695 
-0.0679362 -0.165315 0.997695 
-0.0660359 -0.164829 0.994757 
-0.0643356 -0.164829 0.994757 
-0.0624515 -0.164345 0.991837 
-0.0607562 -0.164345 0.991837 
-0.0590609 -0.164345 0.991837 
-0.0986319 -0.16361 0.997695 
-0.0966412 -0.163128 0.994757 
-0.0952212 -0.16361 0.997695 
-0.0935159 -0.16361 0.997695 
-0.0918106 -0.16361 0.997695 
-0.0901053 -0.16361 0.997695 
-0.0881397 -0.163128 0.994757 
-0.0866947 -0.16361 0.997695 
-0.0849894 -0.16361 0.997695 
-0.083284 -0.16361 0.997695 
-0.0815787 -0.16361 0.997695 
-0.0798734 -0.16361 0.997695 
-0.0781681 -0.16361 0.997695 
-0.0764628 -0.16361 0.997695 
-0.0747575 -0.16361 0.997695 
-0.0730522 -0.16361 0.997695 
-0.0713469 -0.16361 0.997695 
-0.0696415 -0.16361 0.997695 
-0.0677362 -0.163128 0.994757 
-0.0660359 -0.163128 0.994757 
-0.0643356 -0.163128 0.994757 
-0.0966412 -0.161428 0.994757 
-0.0918106 -0.161905 0.997695 
-0.08984 -0.161428 0.994757 
-0.0881397 -0.161428 0.994757 
-0.0864394 -0.161428 0.994757 
-0.0847391 -0.161428 0.994757 
-0.0830388 -0.161428 0.994757 
-0.0813385 -0.161428 0.994757 
-0.0798734 -0.161905 0.997695 
-0.0781681 -0.161905 0.997695 
-0.0764628 -0.161905 0.997695 
-0.0747575 -0.161905 0.997695 
-0.0728371 -0.161428 0.994757 
-0.0711368 -0.161428 0.994757 
-0.0694365 -0.161428 0.994757 
-0.0677362 -0.161428 0.994757 
-0.0660359 -0.161428 0.994757 
-0.0643356 -0.161428 0.994757 
-0.0932406 -0.159728 0.994757 
-0.08984 -0.159728 0.994757 
-0.0881397 -0.159728 0.994757 
-0.0864394 -0.159728 0.994757 
-0.0847391 -0.159728 0.994757 
-0.0830388 -0.159728 0.994757 
-0.0813385 -0.159728 0.994757 
-0.0796383 -0.159728 0.994757 
-0.077938 -0.159728 0.994757 
-0.0762377 -0.159728 0.994757 
-0.0745374 -0.159728 0.994757 
-0.0728371 -0.159728 0.994757 
-0.0711368 -0.159728 0.994757 
-0.0694365 -0.159728 0.994757 
-0.0677362 -0.159728 0.994757 
