ply
format ascii 1.0
comment VCGLIB generated
element vertex 808
property float x
property float y
property float z
element face 0
property list uchar int vertex_indices
end_header
-0.0331021 -0.226576 1.02805 
-0.0313449 -0.226576 1.02805 
-0.0295877 -0.226576 1.02805 
-0.0278305 -0.226576 1.02805 
-0.0260733 -0.226576 1.02805 
-0.0243161 -0.226576 1.02805 
-0.0225589 -0.226576 1.02805 
-0.0208017 -0.226576 1.02805 
-0.0190445 -0.226576 1.02805 
-0.0172873 -0.226576 1.02805 
-0.0155301 -0.226576 1.02805 
-0.0137729 -0.226576 1.02805 
-0.0120157 -0.226576 1.02805 
-0.0102585 -0.226576 1.02805 
-0.00850133 -0.226576 1.02805 
-0.00674413 -0.226576 1.02805 
-0.00498693 -0.226576 1.02805 
-0.00322974 -0.226576 1.02805 
-0.00147254 -0.226576 1.02805 
-0.0417611 -0.224137 1.02493 
-0.0400092 -0.224137 1.02493 
-0.0382573 -0.224137 1.02493 
-0.0365054 -0.224137 1.02493 
-0.0347536 -0.224137 1.02493 
-0.0331021 -0.224819 1.02805 
-0.0313449 -0.224819 1.02805 
-0.0295877 -0.224819 1.02805 
-0.0278305 -0.224819 1.02805 
-0.0260733 -0.224819 1.02805 
-0.0243161 -0.224819 1.02805 
-0.0225589 -0.224819 1.02805 
-0.0208017 -0.224819 1.02805 
-0.0190445 -0.224819 1.02805 
-0.0172873 -0.224819 1.02805 
-0.0155301 -0.224819 1.02805 
-0.0137729 -0.224819 1.02805 
-0.0120157 -0.224819 1.02805 
-0.0102585 -0.224819 1.02805 
-0.00850133 -0.224819 1.02805 
-0.00674413 -0.224819 1.02805 
-0.00498693 -0.224819 1.02805 
-0.00322974 -0.224819 1.02805 
-0.00147254 -0.224819 1.02805 
0.000284663 -0.224819 1.02805 
0.00204186 -0.224819 1.02805 
0.00378754 -0.224137 1.02493 
0.00553941 -0.224137 1.02493 
-0.0573539 -0.221712 1.02183 
-0.0556073 -0.221712 1.02183 
-0.0538608 -0.221712 1.02183 
-0.048621 -0.221712 1.02183 
-0.0468745 -0.221712 1.02183 
-0.0451279 -0.221712 1.02183 
-0.0433813 -0.221712 1.02183 
-0.0417611 -0.222385 1.02493 
-0.0400092 -0.222385 1.02493 
-0.0382573 -0.222385 1.02493 
-0.0365054 -0.222385 1.02493 
-0.0347536 -0.222385 1.02493 
-0.0331021 -0.223061 1.02805 
-0.0313449 -0.223061 1.02805 
-0.0295877 -0.223061 1.02805 
-0.0278305 -0.223061 1.02805 
-0.0260733 -0.223061 1.02805 
-0.0243161 -0.223061 1.02805 
-0.0225589 -0.223061 1.02805 
-0.0208017 -0.223061 1.02805 
-0.0190445 -0.223061 1.02805 
-0.0172873 -0.223061 1.02805 
-0.0155301 -0.223061 1.02805 
-0.0137729 -0.223061 1.02805 
-0.0120157 -0.223061 1.02805 
-0.0102585 -0.223061 1.02805 
-0.00850133 -0.223061 1.02805 
-0.00674413 -0.223061 1.02805 
-0.00498693 -0.223061 1.02805 
-0.00322974 -0.223061 1.02805 
-0.00147254 -0.223061 1.02805 
0.000284663 -0.223061 1.02805 
0.00204186 -0.223061 1.02805 
0.00379906 -0.223061 1.02805 
0.00553941 -0.222385 1.02493 
0.00726922 -0.221712 1.02183 
0.00901579 -0.221712 1.02183 
0.0107624 -0.221712 1.02183 
0.0125089 -0.221712 1.02183 
-0.0676288 -0.219302 1.01875 
-0.0658875 -0.219302 1.01875 
-0.0641462 -0.219302 1.01875 
-0.0624049 -0.219302 1.01875 
-0.0589223 -0.219302 1.01875 
-0.0573539 -0.219966 1.02183 
-0.0556073 -0.219966 1.02183 
-0.0538608 -0.219966 1.02183 
-0.051957 -0.219302 1.01875 
-0.0503676 -0.219966 1.02183 
-0.048621 -0.219966 1.02183 
-0.0468745 -0.219966 1.02183 
-0.0451279 -0.219966 1.02183 
-0.0433813 -0.219966 1.02183 
-0.0417611 -0.220633 1.02493 
-0.0398882 -0.219966 1.02183 
-0.0382573 -0.220633 1.02493 
-0.0366165 -0.221304 1.02805 
-0.0348593 -0.221304 1.02805 
-0.0331021 -0.221304 1.02805 
-0.0313449 -0.221304 1.02805 
-0.0295877 -0.221304 1.02805 
-0.0278305 -0.221304 1.02805 
-0.0260733 -0.221304 1.02805 
-0.0243161 -0.221304 1.02805 
-0.0225589 -0.221304 1.02805 
-0.0208017 -0.221304 1.02805 
-0.0190445 -0.221304 1.02805 
-0.0172873 -0.221304 1.02805 
-0.0155301 -0.221304 1.02805 
-0.0137729 -0.221304 1.02805 
-0.0120157 -0.221304 1.02805 
-0.0102585 -0.221304 1.02805 
-0.00850133 -0.221304 1.02805 
-0.00676472 -0.22198 1.03119 
-0.00500215 -0.22198 1.03119 
-0.00323959 -0.22198 1.03119 
-0.00147703 -0.22198 1.03119 
0.000285532 -0.22198 1.03119 
0.00204186 -0.221304 1.02805 
0.00379906 -0.221304 1.02805 
0.00553941 -0.220633 1.02493 
0.00726922 -0.219966 1.02183 
0.00901579 -0.219966 1.02183 
0.0107624 -0.219966 1.02183 
-0.0708976 -0.216907 1.01569 
-0.0691616 -0.216907 1.01569 
-0.0674255 -0.216907 1.01569 
-0.0656894 -0.216907 1.01569 
-0.0639533 -0.216907 1.01569 
-0.0622173 -0.216907 1.01569 
-0.0604812 -0.216907 1.01569 
-0.0589223 -0.217561 1.01875 
-0.0573539 -0.218219 1.02183 
-0.0556073 -0.218219 1.02183 
-0.0538608 -0.218219 1.02183 
-0.0521142 -0.218219 1.02183 
-0.0503676 -0.218219 1.02183 
-0.048621 -0.218219 1.02183 
-0.0468745 -0.218219 1.02183 
-0.0451279 -0.218219 1.02183 
-0.0433813 -0.218219 1.02183 
-0.0416348 -0.218219 1.02183 
-0.0398882 -0.218219 1.02183 
-0.0381416 -0.218219 1.02183 
-0.0365054 -0.218881 1.02493 
-0.0347536 -0.218881 1.02493 
-0.0331021 -0.219547 1.02805 
-0.0313449 -0.219547 1.02805 
-0.029498 -0.218881 1.02493 
-0.0277461 -0.218881 1.02493 
-0.0260733 -0.219547 1.02805 
-0.0243161 -0.219547 1.02805 
-0.0225589 -0.219547 1.02805 
-0.0208017 -0.219547 1.02805 
-0.0189868 -0.218881 1.02493 
-0.0172349 -0.218881 1.02493 
-0.0155301 -0.219547 1.02805 
-0.0137729 -0.219547 1.02805 
-0.0120157 -0.219547 1.02805 
-0.0102585 -0.219547 1.02805 
-0.00850133 -0.219547 1.02805 
-0.00676472 -0.220217 1.03119 
-0.00500215 -0.220217 1.03119 
-0.00323959 -0.220217 1.03119 
-0.00147703 -0.220217 1.03119 
0.000285532 -0.220217 1.03119 
0.00204186 -0.219547 1.02805 
0.00379906 -0.219547 1.02805 
0.00553941 -0.218881 1.02493 
0.00726922 -0.218219 1.02183 
0.00901579 -0.218219 1.02183 
0.0107624 -0.218219 1.02183 
0.0124712 -0.217561 1.01875 
0.0142125 -0.217561 1.01875 
-0.0741469 -0.214526 1.01265 
-0.0726337 -0.215171 1.01569 
-0.0708976 -0.215171 1.01569 
-0.0691616 -0.215171 1.01569 
-0.0674255 -0.215171 1.01569 
-0.0656894 -0.215171 1.01569 
-0.0639533 -0.215171 1.01569 
-0.0622173 -0.215171 1.01569 
-0.0604812 -0.215171 1.01569 
-0.0587451 -0.215171 1.01569 
-0.057181 -0.21582 1.01875 
-0.0556073 -0.216472 1.02183 
-0.0536983 -0.21582 1.01875 
-0.051957 -0.21582 1.01875 
-0.0502157 -0.21582 1.01875 
-0.0484744 -0.21582 1.01875 
-0.0468745 -0.216472 1.02183 
-0.0451279 -0.216472 1.02183 
-0.0433813 -0.216472 1.02183 
-0.0416348 -0.216472 1.02183 
-0.0398882 -0.216472 1.02183 
-0.0381416 -0.216472 1.02183 
-0.0365054 -0.217129 1.02493 
-0.0347536 -0.217129 1.02493 
-0.0331021 -0.21779 1.02805 
-0.0313449 -0.21779 1.02805 
-0.029498 -0.217129 1.02493 
-0.0277461 -0.217129 1.02493 
-0.0260733 -0.21779 1.02805 
-0.0243161 -0.21779 1.02805 
-0.0224905 -0.217129 1.02493 
-0.0207386 -0.217129 1.02493 
-0.0189868 -0.217129 1.02493 
-0.0171828 -0.216472 1.02183 
-0.015483 -0.217129 1.02493 
-0.0137312 -0.217129 1.02493 
-0.0120157 -0.21779 1.02805 
-0.0102585 -0.21779 1.02805 
-0.00850133 -0.21779 1.02805 
-0.00676472 -0.218454 1.03119 
-0.00498693 -0.21779 1.02805 
-0.00323959 -0.218454 1.03119 
-0.00147703 -0.218454 1.03119 
0.000285532 -0.218454 1.03119 
0.00204186 -0.21779 1.02805 
0.00379906 -0.21779 1.02805 
0.00553941 -0.217129 1.02493 
0.00726922 -0.216472 1.02183 
0.00904314 -0.217129 1.02493 
0.0107624 -0.216472 1.02183 
0.0125089 -0.216472 1.02183 
0.0142125 -0.21582 1.01875 
0.0159059 -0.215171 1.01569 
-0.072416 -0.212795 1.01265 
-0.0706851 -0.212795 1.01265 
-0.0689543 -0.212795 1.01265 
-0.0674255 -0.213435 1.01569 
-0.0656894 -0.213435 1.01569 
-0.0639533 -0.213435 1.01569 
-0.0622173 -0.213435 1.01569 
-0.0604812 -0.213435 1.01569 
-0.0587451 -0.213435 1.01569 
-0.057181 -0.214078 1.01875 
-0.0554397 -0.214078 1.01875 
-0.0536983 -0.214078 1.01875 
-0.051957 -0.214078 1.01875 
-0.0502157 -0.214078 1.01875 
-0.0484744 -0.214078 1.01875 
-0.0467331 -0.214078 1.01875 
-0.0449918 -0.214078 1.01875 
-0.0432505 -0.214078 1.01875 
-0.0415092 -0.214078 1.01875 
-0.0397679 -0.214078 1.01875 
-0.0380266 -0.214078 1.01875 
-0.0362853 -0.214078 1.01875 
-0.0346485 -0.214726 1.02183 
-0.0329019 -0.214726 1.02183 
-0.0312498 -0.215377 1.02493 
-0.0294088 -0.214726 1.02183 
-0.0276622 -0.214726 1.02183 
-0.0259156 -0.214726 1.02183 
-0.0242424 -0.215377 1.02493 
-0.0224905 -0.215377 1.02493 
-0.0206759 -0.214726 1.02183 
-0.0189293 -0.214726 1.02183 
-0.0171828 -0.214726 1.02183 
-0.0154362 -0.214726 1.02183 
-0.0137312 -0.215377 1.02493 
-0.0119793 -0.215377 1.02493 
-0.0102274 -0.215377 1.02493 
-0.00847554 -0.215377 1.02493 
-0.00674413 -0.216033 1.02805 
-0.00498693 -0.216033 1.02805 
-0.00322974 -0.216033 1.02805 
-0.00147254 -0.216033 1.02805 
0.000284663 -0.216033 1.02805 
0.00204186 -0.216033 1.02805 
0.00379906 -0.216033 1.02805 
0.00553941 -0.215377 1.02493 
0.00729127 -0.215377 1.02493 
0.00904314 -0.215377 1.02493 
0.0107624 -0.214726 1.02183 
0.0124712 -0.214078 1.01875 
0.0142125 -0.214078 1.01875 
0.0159059 -0.213435 1.01569 
0.0175891 -0.212795 1.01265 
-0.0739253 -0.210434 1.00962 
-0.072416 -0.211064 1.01265 
-0.0706851 -0.211064 1.01265 
-0.0689543 -0.211064 1.01265 
-0.0672234 -0.211064 1.01265 
-0.0656894 -0.211699 1.01569 
-0.0639533 -0.211699 1.01569 
-0.0622173 -0.211699 1.01569 
-0.0604812 -0.211699 1.01569 
-0.0587451 -0.211699 1.01569 
-0.057181 -0.212337 1.01875 
-0.0554397 -0.212337 1.01875 
-0.0535369 -0.211699 1.01569 
-0.0518009 -0.211699 1.01569 
-0.0500648 -0.211699 1.01569 
-0.0483287 -0.211699 1.01569 
-0.0465926 -0.211699 1.01569 
-0.0448566 -0.211699 1.01569 
-0.0432505 -0.212337 1.01875 
-0.0413844 -0.211699 1.01569 
-0.0396484 -0.211699 1.01569 
-0.0379123 -0.211699 1.01569 
-0.0361762 -0.211699 1.01569 
-0.034544 -0.212337 1.01875 
-0.0328027 -0.212337 1.01875 
-0.0310614 -0.212337 1.01875 
-0.0293201 -0.212337 1.01875 
-0.0275788 -0.212337 1.01875 
-0.0258375 -0.212337 1.01875 
-0.024169 -0.212979 1.02183 
-0.0224225 -0.212979 1.02183 
-0.0206759 -0.212979 1.02183 
-0.0188723 -0.212337 1.01875 
-0.0171828 -0.212979 1.02183 
-0.0154362 -0.212979 1.02183 
-0.0136896 -0.212979 1.02183 
-0.0119431 -0.212979 1.02183 
-0.0101965 -0.212979 1.02183 
-0.00847554 -0.213625 1.02493 
-0.00674413 -0.214275 1.02805 
-0.00498693 -0.214275 1.02805 
-0.00322974 -0.214275 1.02805 
-0.00147254 -0.214275 1.02805 
0.000284663 -0.214275 1.02805 
0.00204186 -0.214275 1.02805 
0.00379906 -0.214275 1.02805 
0.00553941 -0.213625 1.02493 
0.00726922 -0.212979 1.02183 
0.00904314 -0.213625 1.02493 
0.0107624 -0.212979 1.02183 
0.0124712 -0.212337 1.01875 
0.0142125 -0.212337 1.01875 
0.0159059 -0.211699 1.01569 
0.0176419 -0.211699 1.01569 
0.0193199 -0.211064 1.01265 
0.0209879 -0.210434 1.00962 
-0.0754256 -0.208086 1.00661 
-0.0737051 -0.208086 1.00661 
-0.0721996 -0.208708 1.00962 
-0.0704739 -0.208708 1.00962 
-0.0689543 -0.209333 1.01265 
-0.0672234 -0.209333 1.01265 
-0.0654925 -0.209333 1.01265 
-0.0637617 -0.209333 1.01265 
-0.0620308 -0.209333 1.01265 
-0.0602999 -0.209333 1.01265 
-0.0585691 -0.209333 1.01265 
-0.0570091 -0.209963 1.01569 
-0.055273 -0.209963 1.01569 
-0.0535369 -0.209963 1.01569 
-0.0518009 -0.209963 1.01569 
-0.0499147 -0.209333 1.01265 
-0.0481839 -0.209333 1.01265 
-0.0465926 -0.209963 1.01569 
-0.0447221 -0.209333 1.01265 
-0.0429913 -0.209333 1.01265 
-0.0412604 -0.209333 1.01265 
-0.0396484 -0.209963 1.01569 
-0.0377987 -0.209333 1.01265 
-0.0361762 -0.209963 1.01569 
-0.0344402 -0.209963 1.01569 
-0.0327041 -0.209963 1.01569 
-0.030968 -0.209963 1.01569 
-0.029232 -0.209963 1.01569 
-0.0275788 -0.210596 1.01875 
-0.0258375 -0.210596 1.01875 
-0.0240962 -0.210596 1.01875 
-0.0223549 -0.210596 1.01875 
-0.0206136 -0.210596 1.01875 
-0.0188723 -0.210596 1.01875 
-0.017131 -0.210596 1.01875 
-0.0153897 -0.210596 1.01875 
-0.0136483 -0.210596 1.01875 
-0.0119431 -0.211233 1.02183 
-0.0101965 -0.211233 1.02183 
-0.00844991 -0.211233 1.02183 
-0.00672368 -0.211873 1.02493 
-0.00497181 -0.211873 1.02493 
-0.00321994 -0.211873 1.02493 
-0.00146807 -0.211873 1.02493 
0.000284663 -0.212518 1.02805 
0.00203567 -0.211873 1.02493 
0.00378754 -0.211873 1.02493 
0.00552265 -0.211233 1.02183 
0.00724731 -0.210596 1.01875 
0.00901579 -0.211233 1.02183 
0.0107624 -0.211233 1.02183 
0.0124712 -0.210596 1.01875 
0.0142125 -0.210596 1.01875 
0.0159059 -0.209963 1.01569 
0.0176419 -0.209963 1.01569 
0.0193199 -0.209333 1.01265 
0.0209254 -0.208086 1.00661 
-0.0754256 -0.206366 1.00661 
-0.0739253 -0.206982 1.00962 
-0.0721996 -0.206982 1.00962 
-0.0704739 -0.206982 1.00962 
-0.0687482 -0.206982 1.00962 
-0.0672234 -0.207603 1.01265 
-0.0652968 -0.206982 1.00962 
-0.0637617 -0.207603 1.01265 
-0.0618455 -0.206982 1.00962 
-0.0602999 -0.207603 1.01265 
-0.0585691 -0.207603 1.01265 
-0.0570091 -0.208227 1.01569 
-0.055273 -0.208227 1.01569 
-0.0533765 -0.207603 1.01265 
-0.0516456 -0.207603 1.01265 
-0.0499147 -0.207603 1.01265 
-0.0481839 -0.207603 1.01265 
-0.046453 -0.207603 1.01265 
-0.0445885 -0.206982 1.00962 
-0.0428628 -0.206982 1.00962 
-0.0411371 -0.206982 1.00962 
-0.0394114 -0.206982 1.00962 
-0.0375735 -0.206366 1.00661 
-0.0360678 -0.207603 1.01265 
-0.0343369 -0.207603 1.01265 
-0.0326061 -0.207603 1.01265 
-0.030968 -0.208227 1.01569 
-0.029232 -0.208227 1.01569 
-0.0274959 -0.208227 1.01569 
-0.0257598 -0.208227 1.01569 
-0.0240962 -0.208855 1.01875 
-0.0222877 -0.208227 1.01569 
-0.0205516 -0.208227 1.01569 
-0.0188155 -0.208227 1.01569 
-0.017131 -0.208855 1.01875 
-0.0153897 -0.208855 1.01875 
-0.0136483 -0.208855 1.01875 
-0.011907 -0.208855 1.01875 
-0.0101657 -0.208855 1.01875 
-0.00842443 -0.208855 1.01875 
-0.00670334 -0.209486 1.02183 
-0.00495677 -0.209486 1.02183 
-0.00320052 -0.208855 1.01875 
-0.00146363 -0.209486 1.02183 
0.000282941 -0.209486 1.02183 
0.00202951 -0.209486 1.02183 
0.00377608 -0.209486 1.02183 
0.005506 -0.208855 1.01875 
0.00724731 -0.208855 1.01875 
0.00901579 -0.209486 1.02183 
0.0107624 -0.209486 1.02183 
0.0124712 -0.208855 1.01875 
0.0141698 -0.208227 1.01569 
0.0159059 -0.208227 1.01569 
0.0175891 -0.207603 1.01265 
0.0192622 -0.206982 1.00962 
0.0208632 -0.205753 1.00362 
-0.0739253 -0.205257 1.00962 
-0.0721996 -0.205257 1.00962 
-0.0704739 -0.205257 1.00962 
-0.0689543 -0.205872 1.01265 
-0.0672234 -0.205872 1.01265 
-0.0652968 -0.205257 1.00962 
-0.0637617 -0.205872 1.01265 
-0.0618455 -0.205257 1.00962 
-0.0601198 -0.205257 1.00962 
-0.0583941 -0.205257 1.00962 
-0.0568382 -0.205872 1.01265 
-0.0549427 -0.205257 1.00962 
-0.053217 -0.205257 1.00962 
-0.0516456 -0.205872 1.01265 
-0.0497656 -0.205257 1.00962 
-0.0480399 -0.205257 1.00962 
-0.0463142 -0.205257 1.00962 
-0.0444557 -0.204645 1.00661 
-0.0427351 -0.204645 1.00661 
-0.0410146 -0.204645 1.00661 
-0.0394114 -0.205257 1.00962 
-0.0375735 -0.204645 1.00661 
-0.03596 -0.205257 1.00962 
-0.0343369 -0.205872 1.01265 
-0.0326061 -0.205872 1.01265 
-0.0308752 -0.205872 1.01265 
-0.0291443 -0.205872 1.01265 
-0.0274135 -0.205872 1.01265 
-0.0256826 -0.205872 1.01265 
-0.0240237 -0.206491 1.01569 
-0.0222877 -0.206491 1.01569 
-0.02049 -0.205872 1.01265 
-0.0188155 -0.206491 1.01569 
-0.0170795 -0.206491 1.01569 
-0.0153897 -0.207113 1.01875 
-0.0136073 -0.206491 1.01569 
-0.011907 -0.207113 1.01875 
-0.0101657 -0.207113 1.01875 
-0.00842443 -0.207113 1.01875 
-0.00668313 -0.207113 1.01875 
-0.00494183 -0.207113 1.01875 
-0.00320052 -0.207113 1.01875 
-0.00145922 -0.207113 1.01875 
0.000282088 -0.207113 1.01875 
0.00202339 -0.207113 1.01875 
0.00375338 -0.206491 1.01569 
0.00548945 -0.206491 1.01569 
0.00722552 -0.206491 1.01569 
0.00898861 -0.207113 1.01875 
0.0106977 -0.206491 1.01569 
0.0124337 -0.206491 1.01569 
0.0141273 -0.205872 1.01265 
0.0158582 -0.205872 1.01265 
0.0175891 -0.205872 1.01265 
0.0192622 -0.205257 1.00962 
0.0208632 -0.204037 1.00362 
-0.072416 -0.204141 1.01265 
-0.0704739 -0.203531 1.00962 
-0.0687482 -0.203531 1.00962 
-0.0670225 -0.203531 1.00962 
-0.0652968 -0.203531 1.00962 
-0.0637617 -0.204141 1.01265 
-0.0618455 -0.203531 1.00962 
-0.0601198 -0.203531 1.00962 
-0.0582201 -0.202925 1.00661 
-0.0566684 -0.203531 1.00962 
-0.0549427 -0.203531 1.00962 
-0.053217 -0.203531 1.00962 
-0.0514913 -0.203531 1.00962 
-0.0496173 -0.202925 1.00661 
-0.0478968 -0.202925 1.00661 
-0.0461762 -0.202925 1.00661 
-0.0443236 -0.202322 1.00362 
-0.0426082 -0.202322 1.00362 
-0.0408927 -0.202322 1.00362 
-0.039294 -0.202925 1.00661 
-0.0374618 -0.202322 1.00362 
-0.0358529 -0.202925 1.00661 
-0.0342343 -0.203531 1.00962 
-0.0325086 -0.203531 1.00962 
-0.0307829 -0.203531 1.00962 
-0.0290573 -0.203531 1.00962 
-0.0273316 -0.203531 1.00962 
-0.0256826 -0.204141 1.01265 
-0.0239517 -0.204141 1.01265 
-0.0222209 -0.204141 1.01265 
-0.02049 -0.204141 1.01265 
-0.0187591 -0.204141 1.01265 
-0.0170795 -0.204755 1.01569 
-0.0153434 -0.204755 1.01569 
-0.0136073 -0.204755 1.01569 
-0.0118713 -0.204755 1.01569 
-0.0101352 -0.204755 1.01569 
-0.00842443 -0.205372 1.01875 
-0.00668313 -0.205372 1.01875 
-0.00492697 -0.204755 1.01569 
-0.0031909 -0.204755 1.01569 
-0.00145483 -0.204755 1.01569 
0.000280397 -0.204141 1.01265 
0.00201126 -0.204141 1.01265 
0.00374213 -0.204141 1.01265 
0.00545664 -0.203531 1.00962 
0.00720386 -0.204141 1.01265 
0.00896159 -0.204755 1.01569 
0.0106656 -0.204141 1.01265 
0.0123594 -0.203531 1.00962 
0.0140851 -0.203531 1.00962 
0.0158108 -0.203531 1.00962 
0.0175365 -0.203531 1.00962 
0.0192048 -0.202925 1.00661 
0.0208632 -0.202322 1.00362 
-0.0704739 -0.201805 1.00962 
-0.0687482 -0.201805 1.00962 
-0.0670225 -0.201805 1.00962 
-0.0652968 -0.201805 1.00962 
-0.0635711 -0.201805 1.00962 
-0.0618455 -0.201805 1.00962 
-0.0601198 -0.201805 1.00962 
-0.0582201 -0.201204 1.00661 
-0.0566684 -0.201805 1.00962 
-0.0549427 -0.201805 1.00962 
-0.0530584 -0.201204 1.00661 
-0.0513379 -0.201204 1.00661 
-0.0494699 -0.200606 1.00362 
-0.0477545 -0.200606 1.00362 
-0.0460391 -0.200606 1.00362 
-0.0441924 -0.200012 1.00065 
-0.042482 -0.200012 1.00065 
-0.0406512 -0.199422 0.997695 
-0.0390613 -0.200012 1.00065 
-0.0373509 -0.200012 1.00065 
-0.0357464 -0.200606 1.00362 
-0.034031 -0.200606 1.00362 
-0.0324118 -0.201204 1.00661 
-0.0306912 -0.201204 1.00661 
-0.0289707 -0.201204 1.00661 
-0.0272501 -0.201204 1.00661 
-0.0256059 -0.201805 1.00962 
-0.0238802 -0.201805 1.00962 
-0.0221545 -0.201805 1.00962 
-0.0204288 -0.201805 1.00962 
-0.0187031 -0.201805 1.00962 
-0.0170283 -0.20241 1.01265 
-0.0152974 -0.20241 1.01265 
-0.0135665 -0.20241 1.01265 
-0.0118713 -0.203018 1.01569 
-0.0101352 -0.203018 1.01569 
-0.00839911 -0.203018 1.01569 
-0.00666304 -0.203018 1.01569 
-0.00492697 -0.203018 1.01569 
-0.00318134 -0.20241 1.01265 
-0.00145047 -0.20241 1.01265 
0.000280397 -0.20241 1.01265 
0.00200525 -0.201805 1.00962 
0.00373095 -0.201805 1.00962 
0.00544039 -0.201204 1.00661 
0.00716094 -0.201204 1.00661 
0.00890803 -0.201805 1.00962 
0.0106337 -0.201805 1.00962 
0.0123226 -0.201204 1.00661 
0.0140014 -0.200606 1.00362 
0.0157637 -0.201204 1.00661 
0.0174323 -0.200606 1.00362 
0.0191478 -0.200606 1.00362 
0.0208014 -0.200012 1.00065 
-0.0670225 -0.200079 1.00962 
-0.0652968 -0.200079 1.00962 
-0.0635711 -0.200079 1.00962 
-0.0618455 -0.200079 1.00962 
-0.0601198 -0.200079 1.00962 
-0.0582201 -0.199483 1.00661 
-0.0566684 -0.200079 1.00962 
-0.054779 -0.199483 1.00661 
-0.0529008 -0.198891 1.00362 
-0.0511854 -0.198891 1.00362 
-0.0493234 -0.198302 1.00065 
-0.0476131 -0.198302 1.00065 
-0.0459027 -0.198302 1.00065 
-0.0440619 -0.197716 0.997695 
-0.0423565 -0.197716 0.997695 
-0.0406512 -0.197716 0.997695 
-0.0389459 -0.197716 0.997695 
-0.0372406 -0.197716 0.997695 
-0.0356405 -0.198302 1.00065 
-0.0339302 -0.198302 1.00065 
-0.0322198 -0.198302 1.00065 
-0.0306001 -0.198891 1.00362 
-0.0288846 -0.198891 1.00362 
-0.0271692 -0.198891 1.00362 
-0.0254537 -0.198891 1.00362 
-0.0237383 -0.198891 1.00362 
-0.0220229 -0.198891 1.00362 
-0.0203074 -0.198891 1.00362 
-0.018592 -0.198891 1.00362 
-0.0169268 -0.199483 1.00661 
-0.0152517 -0.200079 1.00962 
-0.013526 -0.200079 1.00962 
-0.0118003 -0.200079 1.00962 
-0.0100746 -0.200079 1.00962 
-0.00837394 -0.200679 1.01265 
-0.00664307 -0.200679 1.01265 
-0.0049122 -0.200679 1.01265 
-0.00317183 -0.200079 1.00962 
-0.00144614 -0.200079 1.00962 
0.000279559 -0.200079 1.00962 
0.00199928 -0.199483 1.00661 
0.00371983 -0.199483 1.00661 
0.00544039 -0.199483 1.00661 
0.00716094 -0.199483 1.00661 
0.00890803 -0.200079 1.00962 
0.010602 -0.199483 1.00661 
0.0123226 -0.199483 1.00661 
0.0140014 -0.198891 1.00362 
0.0157169 -0.198891 1.00362 
0.0173807 -0.198302 1.00065 
0.0190911 -0.198302 1.00065 
0.02074 -0.197716 0.997695 
0.0223792 -0.197134 0.994757 
-0.0651023 -0.197763 1.00661 
-0.0633818 -0.197763 1.00661 
-0.0616612 -0.197763 1.00661 
-0.0599407 -0.197763 1.00661 
-0.0582201 -0.197763 1.00661 
-0.0564995 -0.197763 1.00661 
-0.0546163 -0.197175 1.00362 
-0.0529008 -0.197175 1.00362 
-0.0511854 -0.197175 1.00362 
-0.0493234 -0.196591 1.00065 
-0.0474725 -0.196011 0.997695 
-0.0457672 -0.196011 0.997695 
-0.0439321 -0.195434 0.994757 
-0.0422318 -0.195434 0.994757 
-0.0405316 -0.195434 0.994757 
-0.0388313 -0.195434 0.994757 
-0.037131 -0.195434 0.994757 
-0.0355353 -0.196011 0.997695 
-0.03383 -0.196011 0.997695 
-0.0321247 -0.196011 0.997695 
-0.0305095 -0.196591 1.00065 
-0.0287991 -0.196591 1.00065 
-0.0270887 -0.196591 1.00065 
-0.0253034 -0.196011 0.997695 
-0.023668 -0.196591 1.00065 
-0.0218928 -0.196011 0.997695 
-0.0202473 -0.196591 1.00065 
-0.0185369 -0.196591 1.00065 
-0.0168265 -0.196591 1.00065 
-0.0151611 -0.197175 1.00362 
-0.0134857 -0.197763 1.00661 
-0.0117651 -0.197763 1.00661 
-0.0100446 -0.197763 1.00661 
-0.00832404 -0.197763 1.00661 
-0.00662322 -0.198354 1.00962 
-0.00488293 -0.197763 1.00661 
-0.00316238 -0.197763 1.00661 
-0.00144183 -0.197763 1.00661 
0.000278726 -0.197763 1.00661 
0.00199928 -0.197763 1.00661 
0.00371983 -0.197763 1.00661 
0.00542423 -0.197175 1.00362 
0.00713967 -0.197175 1.00362 
0.00888149 -0.197763 1.00661 
0.0105706 -0.197175 1.00362 
0.012286 -0.197175 1.00362 
0.01396 -0.196591 1.00065 
0.0156703 -0.196591 1.00065 
0.0173294 -0.196011 0.997695 
0.0190347 -0.196011 0.997695 
0.02074 -0.196011 0.997695 
-0.0633818 -0.196042 1.00661 
-0.0616612 -0.196042 1.00661 
-0.0599407 -0.196042 1.00661 
-0.0580472 -0.19546 1.00362 
-0.0563317 -0.19546 1.00362 
-0.0546163 -0.19546 1.00362 
-0.0527442 -0.194881 1.00065 
-0.0510338 -0.194881 1.00065 
-0.0491778 -0.194306 0.997695 
-0.0473327 -0.193734 0.994757 
-0.0456324 -0.193734 0.994757 
-0.0439321 -0.193734 0.994757 
-0.0422318 -0.193734 0.994757 
-0.0405316 -0.193734 0.994757 
-0.0388313 -0.193734 0.994757 
-0.037131 -0.193734 0.994757 
-0.0354307 -0.193734 0.994757 
-0.0337304 -0.193734 0.994757 
-0.0321247 -0.194306 0.997695 
-0.0304194 -0.194306 0.997695 
-0.028714 -0.194306 0.997695 
-0.0270087 -0.194306 0.997695 
-0.0252289 -0.193734 0.994757 
-0.0235981 -0.194306 0.997695 
-0.0218283 -0.193734 0.994757 
-0.0201875 -0.194306 0.997695 
-0.0185369 -0.194881 1.00065 
-0.0167769 -0.194306 0.997695 
-0.0151611 -0.19546 1.00362 
-0.0134857 -0.196042 1.00661 
-0.0117302 -0.19546 1.00362 
-0.0100446 -0.196042 1.00661 
-0.00832404 -0.196042 1.00661 
-0.00660349 -0.196042 1.00661 
-0.00488293 -0.196042 1.00661 
-0.00316238 -0.196042 1.00661 
-0.00143754 -0.19546 1.00362 
0.000277898 -0.19546 1.00362 
0.00199334 -0.19546 1.00362 
0.00370878 -0.19546 1.00362 
0.00542423 -0.19546 1.00362 
0.00711853 -0.194881 1.00065 
0.00885511 -0.19546 1.00362 
0.0105706 -0.19546 1.00362 
0.0122496 -0.194881 1.00065 
0.0139188 -0.194306 0.997695 
0.0156241 -0.194306 0.997695 
0.0173294 -0.194306 0.997695 
0.0190347 -0.194306 0.997695 
0.02074 -0.194306 0.997695 
-0.0597626 -0.193745 1.00362 
-0.0304194 -0.1926 0.997695 
-0.028714 -0.1926 0.997695 
-0.0201875 -0.1926 0.997695 
-0.0184822 -0.1926 0.997695 
-0.0167769 -0.1926 0.997695 
-0.0151162 -0.193171 1.00065 
-0.0134456 -0.193745 1.00362 
-0.0117302 -0.193745 1.00362 
-0.0100148 -0.193745 1.00362 
-0.00829932 -0.193745 1.00362 
-0.00658387 -0.193745 1.00362 
-0.00486843 -0.193745 1.00362 
-0.00315299 -0.193745 1.00362 
-0.00143754 -0.193745 1.00362 
0.000277898 -0.193745 1.00362 
0.00199334 -0.193745 1.00362 
0.00370878 -0.193745 1.00362 
0.00540816 -0.193171 1.00065 
0.00711853 -0.193171 1.00065 
0.00882889 -0.193171 1.00065 
0.0105393 -0.193171 1.00065 
0.0122496 -0.193171 1.00065 
0.0139188 -0.1926 0.997695 
0.0156241 -0.1926 0.997695 
0.0173294 -0.1926 0.997695 
0.0190347 -0.1926 0.997695 
0.02074 -0.1926 0.997695 
-0.00315299 -0.192029 1.00362 
0.00540816 -0.19146 1.00065 
0.00882889 -0.19146 1.00065 
0.0105393 -0.19146 1.00065 
