ply
format ascii 1.0
comment VCGLIB generated
element vertex 1626
property float x
property float y
property float z
element face 0
property list uchar int vertex_indices
end_header
-0.144249 -0.144425 0.994757 
-0.135748 -0.144425 0.994757 
-0.134048 -0.144425 0.994757 
-0.132347 -0.144425 0.994757 
-0.219062 -0.142725 0.994757 
-0.217362 -0.142725 0.994757 
-0.14595 -0.142725 0.994757 
-0.144249 -0.142725 0.994757 
-0.142549 -0.142725 0.994757 
-0.139148 -0.142725 0.994757 
-0.137448 -0.142725 0.994757 
-0.135748 -0.142725 0.994757 
-0.133654 -0.142306 0.991837 
-0.132347 -0.142725 0.994757 
-0.219062 -0.141025 0.994757 
-0.14935 -0.141025 0.994757 
-0.14595 -0.141025 0.994757 
-0.144249 -0.141025 0.994757 
-0.142549 -0.141025 0.994757 
-0.140849 -0.141025 0.994757 
-0.139148 -0.141025 0.994757 
-0.137448 -0.141025 0.994757 
-0.135748 -0.141025 0.994757 
-0.133654 -0.140611 0.991837 
-0.132347 -0.141025 0.994757 
-0.154907 -0.139736 0.997695 
-0.153202 -0.139736 0.997695 
-0.149791 -0.139736 0.997695 
-0.148086 -0.139736 0.997695 
-0.14595 -0.139324 0.994757 
-0.144249 -0.139324 0.994757 
-0.142549 -0.139324 0.994757 
-0.140849 -0.139324 0.994757 
-0.139148 -0.139324 0.994757 
-0.137448 -0.139324 0.994757 
-0.135748 -0.139324 0.994757 
-0.133654 -0.138915 0.991837 
-0.132347 -0.139324 0.994757 
-0.219709 -0.13803 0.997695 
-0.218004 -0.13803 0.997695 
-0.216298 -0.13803 0.997695 
-0.154907 -0.13803 0.997695 
-0.153202 -0.13803 0.997695 
-0.151497 -0.13803 0.997695 
-0.14935 -0.137624 0.994757 
-0.14765 -0.137624 0.994757 
-0.145521 -0.13722 0.991837 
-0.144249 -0.137624 0.994757 
-0.142549 -0.137624 0.994757 
-0.140849 -0.137624 0.994757 
-0.139148 -0.137624 0.994757 
-0.137448 -0.137624 0.994757 
-0.135748 -0.137624 0.994757 
-0.133654 -0.13722 0.991837 
-0.132347 -0.137624 0.994757 
-0.219062 -0.135924 0.994757 
-0.218004 -0.136325 0.997695 
-0.216298 -0.136325 0.997695 
-0.209477 -0.136325 0.997695 
-0.154907 -0.136325 0.997695 
-0.153202 -0.136325 0.997695 
-0.151497 -0.136325 0.997695 
-0.14935 -0.135924 0.994757 
-0.14765 -0.135924 0.994757 
-0.145521 -0.135525 0.991837 
-0.143826 -0.135525 0.991837 
-0.142549 -0.135924 0.994757 
-0.140849 -0.135924 0.994757 
-0.139148 -0.135924 0.994757 
-0.137045 -0.135525 0.991837 
-0.135349 -0.135525 0.991837 
-0.133654 -0.135525 0.991837 
-0.132347 -0.135924 0.994757 
-0.219062 -0.134223 0.994757 
-0.218004 -0.13462 0.997695 
-0.216298 -0.13462 0.997695 
-0.214593 -0.13462 0.997695 
-0.212888 -0.13462 0.997695 
-0.211182 -0.13462 0.997695 
-0.209477 -0.13462 0.997695 
-0.206067 -0.13462 0.997695 
-0.156612 -0.13462 0.997695 
-0.154451 -0.134223 0.994757 
-0.152751 -0.134223 0.994757 
-0.151051 -0.134223 0.994757 
-0.148912 -0.133829 0.991837 
-0.147216 -0.133829 0.991837 
-0.145521 -0.133829 0.991837 
-0.143826 -0.133829 0.991837 
-0.142131 -0.133829 0.991837 
-0.140435 -0.133829 0.991837 
-0.13874 -0.133829 0.991837 
-0.137045 -0.133829 0.991837 
-0.135349 -0.133829 0.991837 
-0.133654 -0.133829 0.991837 
-0.131959 -0.133829 0.991837 
-0.220114 -0.132134 0.991837 
-0.218419 -0.132134 0.991837 
-0.217362 -0.132523 0.994757 
-0.215029 -0.132134 0.991837 
-0.213333 -0.132134 0.991837 
-0.212261 -0.132523 0.994757 
-0.209943 -0.132134 0.991837 
-0.20886 -0.132523 0.994757 
-0.207772 -0.132914 0.997695 
-0.206067 -0.132914 0.997695 
-0.177601 -0.133308 1.00065 
-0.17589 -0.133308 1.00065 
-0.17418 -0.133308 1.00065 
-0.17196 -0.132914 0.997695 
-0.170255 -0.132914 0.997695 
-0.169049 -0.133308 1.00065 
-0.167338 -0.133308 1.00065 
-0.165139 -0.132914 0.997695 
-0.163918 -0.133308 1.00065 
-0.162207 -0.133308 1.00065 
-0.160497 -0.133308 1.00065 
-0.158787 -0.133308 1.00065 
-0.156612 -0.132914 0.997695 
-0.153998 -0.132134 0.991837 
-0.152302 -0.132134 0.991837 
-0.151051 -0.132523 0.994757 
-0.148912 -0.132134 0.991837 
-0.147216 -0.132134 0.991837 
-0.145095 -0.131747 0.988934 
-0.143405 -0.131747 0.988934 
-0.142131 -0.132134 0.991837 
-0.140435 -0.132134 0.991837 
-0.13874 -0.132134 0.991837 
-0.137045 -0.132134 0.991837 
-0.135349 -0.132134 0.991837 
-0.133654 -0.132134 0.991837 
-0.132347 -0.132523 0.994757 
-0.21947 -0.130057 0.988934 
-0.218419 -0.130439 0.991837 
-0.216724 -0.130439 0.991837 
-0.215029 -0.130439 0.991837 
-0.213333 -0.130439 0.991837 
-0.212261 -0.130823 0.994757 
-0.209943 -0.130439 0.991837 
-0.20886 -0.130823 0.994757 
-0.207772 -0.131209 0.997695 
-0.206067 -0.131209 0.997695 
-0.204966 -0.131598 1.00065 
-0.203256 -0.131598 1.00065 
-0.201546 -0.131598 1.00065 
-0.177601 -0.131598 1.00065 
-0.17589 -0.131598 1.00065 
-0.17418 -0.131598 1.00065 
-0.17196 -0.131209 0.997695 
-0.170255 -0.131209 0.997695 
-0.169049 -0.131598 1.00065 
-0.166844 -0.131209 0.997695 
-0.165139 -0.131209 0.997695 
-0.163918 -0.131598 1.00065 
-0.161728 -0.131209 0.997695 
-0.160023 -0.131209 0.997695 
-0.158318 -0.131209 0.997695 
-0.156151 -0.130823 0.994757 
-0.154451 -0.130823 0.994757 
-0.152302 -0.130439 0.991837 
-0.151051 -0.130823 0.994757 
-0.148912 -0.130439 0.991837 
-0.147216 -0.130439 0.991837 
-0.145095 -0.130057 0.988934 
-0.143405 -0.130057 0.988934 
-0.142131 -0.130439 0.991837 
-0.140435 -0.130439 0.991837 
-0.13874 -0.130439 0.991837 
-0.137045 -0.130439 0.991837 
-0.135748 -0.130823 0.994757 
-0.134048 -0.130823 0.994757 
-0.132347 -0.130823 0.994757 
-0.220114 -0.128743 0.991837 
-0.218419 -0.128743 0.991837 
-0.216724 -0.128743 0.991837 
-0.215662 -0.129123 0.994757 
-0.213333 -0.128743 0.991837 
-0.212261 -0.129123 0.994757 
-0.210561 -0.129123 0.994757 
-0.20886 -0.129123 0.994757 
-0.207772 -0.129504 0.997695 
-0.206067 -0.129504 0.997695 
-0.204361 -0.129504 0.997695 
-0.203256 -0.129887 1.00065 
-0.201546 -0.129887 1.00065 
-0.177601 -0.129887 1.00065 
-0.17589 -0.129887 1.00065 
-0.173666 -0.129504 0.997695 
-0.17196 -0.129504 0.997695 
-0.169754 -0.129123 0.994757 
-0.16855 -0.129504 0.997695 
-0.166844 -0.129504 0.997695 
-0.164653 -0.129123 0.994757 
-0.163434 -0.129504 0.997695 
-0.161728 -0.129504 0.997695 
-0.160023 -0.129504 0.997695 
-0.158318 -0.129504 0.997695 
-0.156151 -0.129123 0.994757 
-0.154451 -0.129123 0.994757 
-0.152751 -0.129123 0.994757 
-0.151051 -0.129123 0.994757 
-0.148912 -0.128743 0.991837 
-0.147216 -0.128743 0.991837 
-0.145095 -0.128367 0.988934 
-0.143405 -0.128367 0.988934 
-0.142131 -0.128743 0.991837 
-0.140435 -0.128743 0.991837 
-0.13874 -0.128743 0.991837 
-0.137448 -0.129123 0.994757 
-0.135748 -0.129123 0.994757 
-0.134048 -0.129123 0.994757 
-0.132347 -0.129123 0.994757 
-0.219873 -0.125939 0.983179 
-0.21883 -0.126307 0.986048 
-0.217144 -0.126307 0.986048 
-0.216089 -0.126676 0.988934 
-0.215029 -0.127048 0.991837 
-0.213333 -0.127048 0.991837 
-0.211638 -0.127048 0.991837 
-0.209943 -0.127048 0.991837 
-0.20886 -0.127422 0.994757 
-0.20716 -0.127422 0.994757 
-0.20546 -0.127422 0.994757 
-0.20376 -0.127422 0.994757 
-0.202656 -0.127798 0.997695 
-0.200951 -0.127798 0.997695 
-0.199835 -0.128177 1.00065 
-0.177601 -0.128177 1.00065 
-0.17589 -0.128177 1.00065 
-0.17418 -0.128177 1.00065 
-0.17196 -0.127798 0.997695 
-0.170255 -0.127798 0.997695 
-0.16855 -0.127798 0.997695 
-0.166353 -0.127422 0.994757 
-0.164653 -0.127422 0.994757 
-0.162953 -0.127422 0.994757 
-0.161252 -0.127422 0.994757 
-0.159552 -0.127422 0.994757 
-0.157852 -0.127422 0.994757 
-0.156151 -0.127422 0.994757 
-0.153998 -0.127048 0.991837 
-0.152751 -0.127422 0.994757 
-0.151051 -0.127422 0.994757 
-0.148912 -0.127048 0.991837 
-0.147216 -0.127048 0.991837 
-0.145095 -0.126676 0.988934 
-0.143405 -0.126676 0.988934 
-0.142131 -0.127048 0.991837 
-0.140435 -0.127048 0.991837 
-0.139148 -0.127422 0.994757 
-0.137448 -0.127422 0.994757 
-0.135748 -0.127422 0.994757 
-0.134048 -0.127422 0.994757 
-0.132347 -0.127422 0.994757 
-0.219873 -0.124259 0.983179 
-0.218193 -0.124259 0.983179 
-0.21778 -0.124986 0.988934 
-0.216089 -0.124986 0.988934 
-0.215029 -0.125353 0.991837 
-0.213333 -0.125353 0.991837 
-0.211638 -0.125353 0.991837 
-0.209943 -0.125353 0.991837 
-0.208247 -0.125353 0.991837 
-0.20716 -0.125722 0.994757 
-0.204857 -0.125353 0.991837 
-0.20376 -0.125722 0.994757 
-0.202059 -0.125722 0.994757 
-0.200359 -0.125722 0.994757 
-0.199835 -0.126467 1.00065 
-0.198713 -0.126842 1.00362 
-0.196998 -0.126842 1.00362 
-0.195283 -0.126842 1.00362 
-0.18499 -0.126842 1.00362 
-0.181559 -0.126842 1.00362 
-0.179844 -0.126842 1.00362 
-0.177601 -0.126467 1.00065 
-0.17589 -0.126467 1.00065 
-0.17418 -0.126467 1.00065 
-0.17196 -0.126093 0.997695 
-0.170255 -0.126093 0.997695 
-0.16855 -0.126093 0.997695 
-0.166353 -0.125722 0.994757 
-0.164653 -0.125722 0.994757 
-0.162953 -0.125722 0.994757 
-0.161252 -0.125722 0.994757 
-0.159552 -0.125722 0.994757 
-0.157852 -0.125722 0.994757 
-0.155693 -0.125353 0.991837 
-0.153998 -0.125353 0.991837 
-0.152302 -0.125353 0.991837 
-0.150607 -0.125353 0.991837 
-0.148912 -0.125353 0.991837 
-0.147216 -0.125353 0.991837 
-0.145521 -0.125353 0.991837 
-0.143405 -0.124986 0.988934 
-0.142131 -0.125353 0.991837 
-0.140435 -0.125353 0.991837 
-0.139148 -0.125722 0.994757 
-0.137448 -0.125722 0.994757 
-0.135748 -0.125722 0.994757 
-0.134048 -0.125722 0.994757 
-0.132347 -0.125722 0.994757 
-0.220911 -0.122222 0.980326 
-0.219235 -0.122222 0.980326 
-0.218193 -0.122578 0.983179 
-0.217144 -0.122936 0.986048 
-0.216089 -0.123296 0.988934 
-0.214399 -0.123296 0.988934 
-0.213333 -0.123658 0.991837 
-0.211638 -0.123658 0.991837 
-0.209943 -0.123658 0.991837 
-0.208247 -0.123658 0.991837 
-0.206552 -0.123658 0.991837 
-0.204857 -0.123658 0.991837 
-0.203161 -0.123658 0.991837 
-0.202059 -0.124022 0.994757 
-0.200359 -0.124022 0.994757 
-0.199245 -0.124388 0.997695 
-0.198713 -0.125127 1.00362 
-0.196415 -0.124756 1.00065 
-0.194704 -0.124756 1.00065 
-0.193567 -0.125127 1.00362 
-0.190136 -0.125127 1.00362 
-0.188421 -0.125127 1.00362 
-0.18499 -0.125127 1.00362 
-0.181559 -0.125127 1.00362 
-0.179844 -0.125127 1.00362 
-0.177601 -0.124756 1.00065 
-0.17589 -0.124756 1.00065 
-0.17418 -0.124756 1.00065 
-0.17196 -0.124388 0.997695 
-0.169754 -0.124022 0.994757 
-0.16855 -0.124388 0.997695 
-0.166353 -0.124022 0.994757 
-0.164653 -0.124022 0.994757 
-0.162953 -0.124022 0.994757 
-0.161252 -0.124022 0.994757 
-0.159552 -0.124022 0.994757 
-0.157852 -0.124022 0.994757 
-0.155693 -0.123658 0.991837 
-0.153998 -0.123658 0.991837 
-0.152302 -0.123658 0.991837 
-0.150607 -0.123658 0.991837 
-0.148912 -0.123658 0.991837 
-0.147216 -0.123658 0.991837 
-0.145095 -0.123296 0.988934 
-0.143405 -0.123296 0.988934 
-0.142131 -0.123658 0.991837 
-0.140435 -0.123658 0.991837 
-0.139148 -0.124022 0.994757 
-0.137448 -0.124022 0.994757 
-0.135748 -0.124022 0.994757 
-0.134048 -0.124022 0.994757 
-0.132347 -0.124022 0.994757 
-0.220911 -0.120547 0.980326 
-0.219235 -0.120547 0.980326 
-0.21756 -0.120547 0.980326 
-0.21778 -0.121605 0.988934 
-0.216089 -0.121605 0.988934 
-0.214399 -0.121605 0.988934 
-0.213333 -0.121962 0.991837 
-0.211638 -0.121962 0.991837 
-0.209943 -0.121962 0.991837 
-0.208247 -0.121962 0.991837 
-0.206552 -0.121962 0.991837 
-0.204857 -0.121962 0.991837 
-0.203161 -0.121962 0.991837 
-0.202059 -0.122321 0.994757 
-0.200359 -0.122321 0.994757 
-0.199245 -0.122683 0.997695 
-0.198125 -0.123046 1.00065 
-0.196415 -0.123046 1.00065 
-0.194704 -0.123046 1.00065 
-0.193567 -0.123411 1.00362 
-0.191852 -0.123411 1.00362 
-0.190136 -0.123411 1.00362 
-0.188421 -0.123411 1.00362 
-0.186705 -0.123411 1.00362 
-0.18499 -0.123411 1.00362 
-0.183274 -0.123411 1.00362 
-0.181559 -0.123411 1.00362 
-0.179844 -0.123411 1.00362 
-0.177601 -0.123046 1.00065 
-0.17589 -0.123046 1.00065 
-0.17418 -0.123046 1.00065 
-0.17247 -0.123046 1.00065 
-0.170255 -0.122683 0.997695 
-0.169049 -0.123046 1.00065 
-0.166353 -0.122321 0.994757 
-0.16417 -0.121962 0.991837 
-0.162953 -0.122321 0.994757 
-0.161252 -0.122321 0.994757 
-0.159552 -0.122321 0.994757 
-0.157852 -0.122321 0.994757 
-0.155693 -0.121962 0.991837 
-0.153998 -0.121962 0.991837 
-0.152302 -0.121962 0.991837 
-0.150607 -0.121962 0.991837 
-0.148476 -0.121605 0.988934 
-0.146786 -0.121605 0.988934 
-0.145095 -0.121605 0.988934 
-0.142986 -0.12125 0.986048 
-0.141715 -0.121605 0.988934 
-0.140435 -0.121962 0.991837 
-0.13874 -0.121962 0.991837 
-0.137448 -0.122321 0.994757 
-0.135748 -0.122321 0.994757 
-0.134048 -0.122321 0.994757 
-0.131959 -0.121962 0.991837 
-0.220911 -0.118871 0.980326 
-0.219235 -0.118871 0.980326 
-0.21883 -0.119565 0.986048 
-0.21778 -0.119915 0.988934 
-0.216089 -0.119915 0.988934 
-0.214399 -0.119915 0.988934 
-0.213333 -0.120267 0.991837 
-0.211638 -0.120267 0.991837 
-0.209943 -0.120267 0.991837 
-0.208247 -0.120267 0.991837 
-0.206552 -0.120267 0.991837 
-0.204857 -0.120267 0.991837 
-0.20376 -0.120621 0.994757 
-0.202059 -0.120621 0.994757 
-0.200359 -0.120621 0.994757 
-0.199245 -0.120977 0.997695 
-0.198125 -0.121336 1.00065 
-0.196415 -0.121336 1.00065 
-0.194704 -0.121336 1.00065 
-0.192994 -0.121336 1.00065 
-0.191852 -0.121696 1.00362 
-0.190136 -0.121696 1.00362 
-0.188421 -0.121696 1.00362 
-0.186705 -0.121696 1.00362 
-0.18499 -0.121696 1.00362 
-0.183274 -0.121696 1.00362 
-0.181559 -0.121696 1.00362 
-0.179311 -0.121336 1.00065 
-0.177601 -0.121336 1.00065 
-0.17589 -0.121336 1.00065 
-0.17418 -0.121336 1.00065 
-0.17196 -0.120977 0.997695 
-0.170255 -0.120977 0.997695 
-0.169049 -0.121336 1.00065 
-0.166844 -0.120977 0.997695 
-0.164653 -0.120621 0.994757 
-0.163434 -0.120977 0.997695 
-0.161728 -0.120977 0.997695 
-0.159552 -0.120621 0.994757 
-0.157852 -0.120621 0.994757 
-0.156151 -0.120621 0.994757 
-0.153998 -0.120267 0.991837 
-0.152302 -0.120267 0.991837 
-0.150607 -0.120267 0.991837 
-0.148912 -0.120267 0.991837 
-0.146786 -0.119915 0.988934 
-0.145095 -0.119915 0.988934 
-0.142986 -0.119565 0.986048 
-0.141715 -0.119915 0.988934 
-0.140435 -0.120267 0.991837 
-0.13874 -0.120267 0.991837 
-0.137448 -0.120621 0.994757 
-0.135748 -0.120621 0.994757 
-0.134048 -0.120621 0.994757 
-0.131959 -0.120267 0.991837 
-0.220911 -0.117196 0.980326 
-0.220515 -0.11788 0.986048 
-0.21947 -0.118225 0.988934 
-0.21778 -0.118225 0.988934 
-0.216089 -0.118225 0.988934 
-0.215029 -0.118572 0.991837 
-0.213333 -0.118572 0.991837 
-0.211638 -0.118572 0.991837 
-0.210561 -0.118921 0.994757 
-0.208247 -0.118572 0.991837 
-0.206552 -0.118572 0.991837 
-0.204857 -0.118572 0.991837 
-0.20376 -0.118921 0.994757 
-0.202059 -0.118921 0.994757 
-0.200359 -0.118921 0.994757 
-0.199245 -0.119272 0.997695 
-0.19754 -0.119272 0.997695 
-0.196415 -0.119625 1.00065 
-0.194704 -0.119625 1.00065 
-0.192994 -0.119625 1.00065 
-0.191852 -0.11998 1.00362 
-0.190136 -0.11998 1.00362 
-0.188421 -0.11998 1.00362 
-0.186705 -0.11998 1.00362 
-0.18499 -0.11998 1.00362 
-0.183274 -0.11998 1.00362 
-0.181021 -0.119625 1.00065 
-0.179311 -0.119625 1.00065 
-0.177601 -0.119625 1.00065 
-0.17589 -0.119625 1.00065 
-0.17418 -0.119625 1.00065 
-0.17247 -0.119625 1.00065 
-0.170759 -0.119625 1.00065 
-0.169049 -0.119625 1.00065 
-0.167338 -0.119625 1.00065 
-0.165139 -0.119272 0.997695 
-0.163918 -0.119625 1.00065 
-0.161728 -0.119272 0.997695 
-0.160023 -0.119272 0.997695 
-0.157852 -0.118921 0.994757 
-0.156151 -0.118921 0.994757 
-0.153998 -0.118572 0.991837 
-0.152302 -0.118572 0.991837 
-0.150607 -0.118572 0.991837 
-0.148476 -0.118225 0.988934 
-0.146786 -0.118225 0.988934 
-0.144672 -0.11788 0.986048 
-0.142986 -0.11788 0.986048 
-0.142131 -0.118572 0.991837 
-0.140435 -0.118572 0.991837 
-0.13874 -0.118572 0.991837 
-0.137448 -0.118921 0.994757 
-0.135748 -0.118921 0.994757 
-0.134048 -0.118921 0.994757 
-0.131959 -0.118572 0.991837 
-0.220272 -0.115186 0.97749 
-0.219235 -0.11552 0.980326 
-0.21883 -0.116194 0.986048 
-0.21778 -0.116534 0.988934 
-0.216089 -0.116534 0.988934 
-0.215029 -0.116876 0.991837 
-0.213333 -0.116876 0.991837 
-0.211638 -0.116876 0.991837 
-0.209943 -0.116876 0.991837 
-0.208247 -0.116876 0.991837 
-0.206552 -0.116876 0.991837 
-0.204857 -0.116876 0.991837 
-0.203161 -0.116876 0.991837 
-0.201466 -0.116876 0.991837 
-0.199771 -0.116876 0.991837 
-0.198659 -0.11722 0.994757 
-0.19754 -0.117567 0.997695 
-0.196415 -0.117915 1.00065 
-0.194704 -0.117915 1.00065 
-0.192994 -0.117915 1.00065 
-0.191852 -0.118265 1.00362 
-0.190136 -0.118265 1.00362 
-0.187863 -0.117915 1.00065 
-0.186152 -0.117915 1.00065 
-0.184442 -0.117915 1.00065 
-0.182732 -0.117915 1.00065 
-0.181021 -0.117915 1.00065 
-0.179311 -0.117915 1.00065 
-0.177601 -0.117915 1.00065 
-0.17589 -0.117915 1.00065 
-0.17418 -0.117915 1.00065 
-0.17196 -0.117567 0.997695 
-0.170255 -0.117567 0.997695 
-0.169049 -0.117915 1.00065 
-0.167338 -0.117915 1.00065 
-0.164653 -0.11722 0.994757 
-0.163918 -0.117915 1.00065 
-0.161728 -0.117567 0.997695 
-0.159552 -0.11722 0.994757 
-0.157852 -0.11722 0.994757 
-0.155693 -0.116876 0.991837 
-0.153998 -0.116876 0.991837 
-0.152302 -0.116876 0.991837 
-0.150607 -0.116876 0.991837 
-0.148476 -0.116534 0.988934 
-0.146786 -0.116534 0.988934 
-0.145095 -0.116534 0.988934 
-0.142986 -0.116194 0.986048 
-0.141715 -0.116534 0.988934 
-0.140435 -0.116876 0.991837 
-0.13874 -0.116876 0.991837 
-0.137045 -0.116876 0.991837 
-0.135349 -0.116876 0.991837 
-0.133654 -0.116876 0.991837 
-0.131573 -0.116534 0.988934 
-0.221303 -0.113188 0.974671 
-0.220272 -0.113515 0.97749 
-0.218601 -0.113515 0.97749 
-0.21756 -0.113844 0.980326 
-0.217144 -0.114509 0.986048 
-0.215459 -0.114509 0.986048 
-0.213773 -0.114509 0.986048 
-0.212709 -0.114844 0.988934 
-0.211638 -0.115181 0.991837 
-0.209943 -0.115181 0.991837 
-0.208247 -0.115181 0.991837 
-0.206552 -0.115181 0.991837 
-0.204857 -0.115181 0.991837 
-0.203161 -0.115181 0.991837 
-0.201466 -0.115181 0.991837 
-0.199771 -0.115181 0.991837 
-0.198659 -0.11552 0.994757 
-0.196958 -0.11552 0.994757 
-0.195835 -0.115861 0.997695 
-0.194129 -0.115861 0.997695 
-0.192994 -0.116204 1.00065 
-0.191284 -0.116204 1.00065 
-0.189573 -0.116204 1.00065 
-0.187863 -0.116204 1.00065 
-0.186152 -0.116204 1.00065 
-0.184442 -0.116204 1.00065 
-0.182192 -0.115861 0.997695 
-0.180487 -0.115861 0.997695 
-0.179311 -0.116204 1.00065 
-0.177076 -0.115861 0.997695 
-0.175371 -0.115861 0.997695 
-0.17418 -0.116204 1.00065 
-0.17196 -0.115861 0.997695 
-0.170255 -0.115861 0.997695 
-0.169049 -0.116204 1.00065 
-0.167338 -0.116204 1.00065 
-0.164653 -0.11552 0.994757 
-0.163434 -0.115861 0.997695 
-0.161728 -0.115861 0.997695 
-0.159552 -0.11552 0.994757 
-0.157852 -0.11552 0.994757 
-0.155693 -0.115181 0.991837 
-0.153998 -0.115181 0.991837 
-0.151857 -0.114844 0.988934 
-0.150607 -0.115181 0.991837 
-0.148476 -0.114844 0.988934 
-0.146786 -0.114844 0.988934 
-0.144672 -0.114509 0.986048 
-0.142986 -0.114509 0.986048 
-0.141715 -0.114844 0.988934 
-0.140024 -0.114844 0.988934 
-0.13874 -0.115181 0.991837 
-0.137045 -0.115181 0.991837 
-0.135349 -0.115181 0.991837 
-0.133263 -0.114844 0.988934 
-0.131573 -0.114844 0.988934 
-0.221303 -0.111522 0.974671 
-0.220272 -0.111844 0.97749 
-0.218601 -0.111844 0.97749 
-0.21756 -0.112169 0.980326 
-0.216512 -0.112495 0.983179 
-0.214832 -0.112495 0.983179 
-0.213151 -0.112495 0.983179 
-0.212709 -0.113154 0.988934 
-0.211018 -0.113154 0.988934 
-0.209943 -0.113486 0.991837 
-0.208247 -0.113486 0.991837 
-0.206552 -0.113486 0.991837 
-0.204857 -0.113486 0.991837 
-0.203161 -0.113486 0.991837 
-0.201466 -0.113486 0.991837 
-0.199771 -0.113486 0.991837 
-0.198659 -0.11382 0.994757 
-0.19754 -0.114156 0.997695 
-0.195835 -0.114156 0.997695 
-0.194129 -0.114156 0.997695 
-0.192424 -0.114156 0.997695 
-0.191284 -0.114494 1.00065 
-0.189573 -0.114494 1.00065 
-0.187863 -0.114494 1.00065 
-0.186152 -0.114494 1.00065 
-0.183897 -0.114156 0.997695 
-0.182192 -0.114156 0.997695 
-0.180487 -0.114156 0.997695 
-0.178782 -0.114156 0.997695 
-0.177076 -0.114156 0.997695 
-0.175371 -0.114156 0.997695 
-0.173666 -0.114156 0.997695 
-0.171454 -0.11382 0.994757 
-0.169754 -0.11382 0.994757 
-0.16855 -0.114156 0.997695 
-0.166844 -0.114156 0.997695 
-0.16417 -0.113486 0.991837 
-0.162953 -0.11382 0.994757 
-0.161252 -0.11382 0.994757 
-0.159552 -0.11382 0.994757 
-0.157852 -0.11382 0.994757 
-0.155693 -0.113486 0.991837 
-0.153547 -0.113154 0.988934 
-0.151413 -0.112823 0.986048 
-0.150166 -0.113154 0.988934 
-0.148043 -0.112823 0.986048 
-0.146357 -0.112823 0.986048 
-0.144672 -0.112823 0.986048 
-0.142986 -0.112823 0.986048 
-0.141715 -0.113154 0.988934 
-0.140024 -0.113154 0.988934 
-0.138334 -0.113154 0.988934 
-0.136644 -0.113154 0.988934 
-0.135349 -0.113486 0.991837 
-0.133263 -0.113154 0.988934 
-0.131573 -0.113154 0.988934 
-0.220666 -0.10954 0.971867 
-0.220272 -0.110173 0.97749 
-0.218601 -0.110173 0.97749 
-0.21756 -0.110493 0.980326 
-0.215884 -0.110493 0.980326 
-0.214832 -0.110815 0.983179 
-0.213151 -0.110815 0.983179 
-0.211471 -0.110815 0.983179 
-0.210403 -0.111138 0.986048 
-0.209943 -0.11179 0.991837 
-0.207638 -0.111463 0.988934 
-0.205947 -0.111463 0.988934 
-0.204857 -0.11179 0.991837 
-0.203161 -0.11179 0.991837 
-0.201466 -0.11179 0.991837 
-0.199771 -0.11179 0.991837 
-0.198659 -0.11212 0.994757 
-0.196958 -0.11212 0.994757 
-0.195835 -0.112451 0.997695 
-0.194129 -0.112451 0.997695 
-0.192424 -0.112451 0.997695 
-0.191284 -0.112784 1.00065 
-0.189573 -0.112784 1.00065 
-0.187863 -0.112784 1.00065 
-0.185603 -0.112451 0.997695 
-0.183897 -0.112451 0.997695 
-0.182192 -0.112451 0.997695 
-0.179955 -0.11212 0.994757 
-0.178782 -0.112451 0.997695 
-0.176555 -0.11212 0.994757 
-0.174855 -0.11212 0.994757 
-0.173154 -0.11212 0.994757 
-0.170951 -0.11179 0.991837 
-0.169255 -0.11179 0.991837 
-0.168053 -0.11212 0.994757 
-0.166353 -0.11212 0.994757 
-0.16417 -0.11179 0.991837 
-0.162474 -0.11179 0.991837 
-0.161252 -0.11212 0.994757 
-0.159084 -0.11179 0.991837 
-0.157852 -0.11212 0.994757 
-0.155237 -0.111463 0.988934 
-0.153547 -0.111463 0.988934 
-0.150973 -0.110815 0.983179 
-0.149728 -0.111138 0.986048 
-0.147612 -0.110815 0.983179 
-0.145931 -0.110815 0.983179 
-0.144251 -0.110815 0.983179 
-0.14257 -0.110815 0.983179 
-0.141301 -0.111138 0.986048 
-0.139616 -0.111138 0.986048 
-0.13793 -0.111138 0.986048 
-0.136245 -0.111138 0.986048 
-0.134953 -0.111463 0.988934 
-0.132874 -0.111138 0.986048 
-0.131189 -0.111138 0.986048 
-0.221689 -0.107569 0.96908 
-0.220666 -0.107878 0.971867 
-0.219637 -0.10819 0.974671 
-0.218601 -0.108503 0.97749 
-0.21756 -0.108817 0.980326 
-0.215884 -0.108817 0.980326 
-0.214209 -0.108817 0.980326 
-0.212533 -0.108817 0.980326 
-0.211471 -0.109134 0.983179 
-0.20979 -0.109134 0.983179 
-0.209328 -0.109773 0.988934 
-0.207638 -0.109773 0.988934 
-0.205947 -0.109773 0.988934 
-0.204857 -0.110095 0.991837 
-0.203161 -0.110095 0.991837 
-0.201466 -0.110095 0.991837 
-0.199771 -0.110095 0.991837 
-0.198659 -0.110419 0.994757 
-0.196958 -0.110419 0.994757 
-0.195835 -0.110745 0.997695 
-0.194129 -0.110745 0.997695 
-0.192994 -0.111073 1.00065 
-0.191284 -0.111073 1.00065 
-0.189573 -0.111073 1.00065 
-0.187863 -0.111073 1.00065 
-0.185603 -0.110745 0.997695 
-0.183897 -0.110745 0.997695 
-0.182192 -0.110745 0.997695 
-0.180487 -0.110745 0.997695 
-0.178782 -0.110745 0.997695 
-0.176555 -0.110419 0.994757 
-0.174855 -0.110419 0.994757 
-0.173154 -0.110419 0.994757 
-0.170951 -0.110095 0.991837 
-0.169255 -0.110095 0.991837 
-0.168053 -0.110419 0.994757 
-0.165865 -0.110095 0.991837 
-0.16417 -0.110095 0.991837 
-0.161999 -0.109773 0.988934 
-0.160779 -0.110095 0.991837 
-0.159084 -0.110095 0.991837 
-0.157388 -0.110095 0.991837 
-0.154784 -0.109453 0.986048 
-0.153099 -0.109453 0.986048 
-0.150973 -0.109134 0.983179 
-0.149728 -0.109453 0.986048 
-0.147612 -0.109134 0.983179 
-0.145931 -0.109134 0.983179 
-0.144251 -0.109134 0.983179 
-0.14257 -0.109134 0.983179 
-0.141301 -0.109453 0.986048 
-0.139209 -0.109134 0.983179 
-0.13793 -0.109453 0.986048 
-0.135848 -0.109134 0.983179 
-0.134953 -0.109773 0.988934 
-0.132874 -0.109453 0.986048 
-0.131189 -0.109453 0.986048 
-0.222327 -0.106217 0.971867 
-0.220666 -0.106217 0.971867 
-0.219637 -0.106524 0.974671 
-0.218601 -0.106832 0.97749 
-0.21693 -0.106832 0.97749 
-0.215884 -0.107142 0.980326 
-0.214209 -0.107142 0.980326 
-0.212533 -0.107142 0.980326 
-0.211471 -0.107454 0.983179 
-0.20979 -0.107454 0.983179 
-0.208717 -0.107767 0.986048 
-0.207032 -0.107767 0.986048 
-0.205346 -0.107767 0.986048 
-0.204257 -0.108083 0.988934 
-0.202567 -0.108083 0.988934 
-0.201466 -0.1084 0.991837 
-0.199771 -0.1084 0.991837 
-0.198076 -0.1084 0.991837 
-0.196958 -0.108719 0.994757 
-0.195258 -0.108719 0.994757 
-0.194129 -0.10904 0.997695 
-0.192424 -0.10904 0.997695 
-0.190719 -0.10904 0.997695 
-0.189573 -0.109363 1.00065 
-0.187308 -0.10904 0.997695 
-0.185603 -0.10904 0.997695 
-0.183897 -0.10904 0.997695 
-0.182192 -0.10904 0.997695 
-0.179955 -0.108719 0.994757 
-0.178255 -0.108719 0.994757 
-0.176555 -0.108719 0.994757 
-0.174341 -0.1084 0.991837 
-0.172646 -0.1084 0.991837 
-0.170951 -0.1084 0.991837 
-0.169255 -0.1084 0.991837 
-0.16756 -0.1084 0.991837 
-0.165865 -0.1084 0.991837 
-0.163689 -0.108083 0.988934 
-0.161999 -0.108083 0.988934 
-0.160308 -0.108083 0.988934 
-0.158618 -0.108083 0.988934 
-0.156928 -0.108083 0.988934 
-0.154784 -0.107767 0.986048 
-0.152653 -0.107454 0.983179 
-0.150973 -0.107454 0.983179 
-0.149292 -0.107454 0.983179 
-0.147612 -0.107454 0.983179 
-0.145508 -0.107142 0.980326 
-0.143832 -0.107142 0.980326 
-0.14257 -0.107454 0.983179 
-0.14089 -0.107454 0.983179 
-0.139209 -0.107454 0.983179 
-0.137529 -0.107454 0.983179 
-0.135454 -0.107142 0.980326 
-0.133779 -0.107142 0.980326 
-0.132103 -0.107142 0.980326 
-0.130427 -0.107142 0.980326 
-0.221689 -0.104256 0.96908 
-0.220666 -0.104556 0.971867 
-0.219637 -0.104858 0.974671 
-0.217971 -0.104858 0.974671 
-0.21693 -0.105161 0.97749 
-0.21526 -0.105161 0.97749 
-0.214209 -0.105466 0.980326 
-0.212533 -0.105466 0.980326 
-0.210857 -0.105466 0.980326 
-0.20979 -0.105773 0.983179 
-0.20811 -0.105773 0.983179 
-0.207032 -0.106082 0.986048 
-0.205346 -0.106082 0.986048 
-0.204257 -0.106392 0.988934 
-0.202567 -0.106392 0.988934 
-0.200876 -0.106392 0.988934 
-0.199771 -0.106705 0.991837 
-0.198076 -0.106705 0.991837 
-0.19638 -0.106705 0.991837 
-0.195258 -0.107019 0.994757 
-0.193558 -0.107019 0.994757 
-0.192424 -0.107335 0.997695 
-0.190719 -0.107335 0.997695 
-0.189013 -0.107335 0.997695 
-0.187308 -0.107335 0.997695 
-0.185603 -0.107335 0.997695 
-0.183897 -0.107335 0.997695 
-0.182192 -0.107335 0.997695 
-0.179955 -0.107019 0.994757 
-0.178255 -0.107019 0.994757 
-0.176555 -0.107019 0.994757 
-0.174341 -0.106705 0.991837 
-0.172646 -0.106705 0.991837 
-0.170951 -0.106705 0.991837 
-0.169255 -0.106705 0.991837 
-0.16756 -0.106705 0.991837 
-0.165865 -0.106705 0.991837 
-0.16417 -0.106705 0.991837 
-0.161999 -0.106392 0.988934 
-0.160308 -0.106392 0.988934 
-0.158618 -0.106392 0.988934 
-0.15647 -0.106082 0.986048 
-0.154784 -0.106082 0.986048 
-0.152653 -0.105773 0.983179 
-0.150973 -0.105773 0.983179 
-0.149292 -0.105773 0.983179 
-0.147612 -0.105773 0.983179 
-0.145931 -0.105773 0.983179 
-0.144251 -0.105773 0.983179 
-0.14257 -0.105773 0.983179 
-0.14089 -0.105773 0.983179 
-0.139209 -0.105773 0.983179 
-0.137529 -0.105773 0.983179 
-0.135454 -0.105466 0.980326 
-0.133392 -0.105161 0.97749 
-0.132103 -0.105466 0.980326 
-0.222327 -0.102895 0.971867 
-0.220666 -0.102895 0.971867 
-0.219005 -0.102895 0.971867 
-0.217971 -0.103192 0.974671 
-0.21693 -0.10349 0.97749 
-0.21526 -0.10349 0.97749 
-0.213589 -0.10349 0.97749 
-0.212533 -0.103791 0.980326 
-0.210857 -0.103791 0.980326 
-0.209182 -0.103791 0.980326 
-0.20811 -0.104093 0.983179 
-0.206429 -0.104093 0.983179 
-0.204749 -0.104093 0.983179 
-0.203661 -0.104396 0.986048 
-0.201976 -0.104396 0.986048 
-0.20029 -0.104396 0.986048 
-0.199186 -0.104702 0.988934 
-0.197496 -0.104702 0.988934 
-0.195805 -0.104702 0.988934 
-0.194685 -0.105009 0.991837 
-0.193558 -0.105318 0.994757 
-0.192424 -0.105629 0.997695 
-0.190719 -0.105629 0.997695 
-0.189013 -0.105629 0.997695 
-0.187308 -0.105629 0.997695 
-0.185603 -0.105629 0.997695 
-0.183897 -0.105629 0.997695 
-0.181656 -0.105318 0.994757 
-0.179955 -0.105318 0.994757 
-0.178255 -0.105318 0.994757 
-0.176037 -0.105009 0.991837 
-0.174341 -0.105009 0.991837 
-0.172646 -0.105009 0.991837 
-0.17045 -0.104702 0.988934 
-0.16876 -0.104702 0.988934 
-0.16756 -0.105009 0.991837 
-0.165865 -0.105009 0.991837 
-0.163689 -0.104702 0.988934 
-0.161999 -0.104702 0.988934 
-0.160308 -0.104702 0.988934 
-0.158618 -0.104702 0.988934 
-0.15647 -0.104396 0.986048 
-0.154334 -0.104093 0.983179 
-0.152653 -0.104093 0.983179 
-0.150973 -0.104093 0.983179 
-0.149292 -0.104093 0.983179 
-0.147612 -0.104093 0.983179 
-0.145508 -0.103791 0.980326 
-0.143832 -0.103791 0.980326 
-0.142157 -0.103791 0.980326 
-0.140481 -0.103791 0.980326 
-0.138805 -0.103791 0.980326 
-0.13713 -0.103791 0.980326 
-0.135062 -0.10349 0.97749 
-0.133779 -0.103791 0.980326 
-0.131721 -0.10349 0.97749 
-0.222327 -0.101234 0.971867 
-0.220666 -0.101234 0.971867 
-0.219005 -0.101234 0.971867 
-0.217971 -0.101526 0.974671 
-0.21693 -0.10182 0.97749 
-0.21526 -0.10182 0.97749 
-0.213589 -0.10182 0.97749 
-0.211918 -0.10182 0.97749 
-0.210857 -0.102115 0.980326 
-0.209182 -0.102115 0.980326 
-0.20811 -0.102412 0.983179 
-0.206429 -0.102412 0.983179 
-0.204749 -0.102412 0.983179 
-0.203661 -0.102711 0.986048 
-0.201976 -0.102711 0.986048 
-0.20029 -0.102711 0.986048 
-0.199186 -0.103012 0.988934 
-0.197496 -0.103012 0.988934 
-0.195805 -0.103012 0.988934 
-0.194685 -0.103314 0.991837 
-0.19299 -0.103314 0.991837 
-0.191858 -0.103618 0.994757 
-0.190157 -0.103618 0.994757 
-0.189013 -0.103924 0.997695 
-0.187308 -0.103924 0.997695 
-0.185603 -0.103924 0.997695 
-0.183897 -0.103924 0.997695 
-0.181656 -0.103618 0.994757 
-0.179955 -0.103618 0.994757 
-0.177732 -0.103314 0.991837 
-0.176037 -0.103314 0.991837 
-0.173831 -0.103012 0.988934 
-0.172141 -0.103012 0.988934 
-0.17045 -0.103012 0.988934 
-0.16876 -0.103012 0.988934 
-0.16756 -0.103314 0.991837 
-0.165379 -0.103012 0.988934 
-0.163689 -0.103012 0.988934 
-0.161999 -0.103012 0.988934 
-0.160308 -0.103012 0.988934 
-0.158618 -0.103012 0.988934 
-0.15647 -0.102711 0.986048 
-0.154334 -0.102412 0.983179 
-0.152653 -0.102412 0.983179 
-0.150973 -0.102412 0.983179 
-0.149292 -0.102412 0.983179 
-0.147184 -0.102115 0.980326 
-0.145508 -0.102115 0.980326 
-0.143832 -0.102115 0.980326 
-0.141745 -0.10182 0.97749 
-0.140075 -0.10182 0.97749 
-0.138404 -0.10182 0.97749 
-0.136733 -0.10182 0.97749 
-0.134673 -0.101526 0.974671 
-0.133392 -0.10182 0.97749 
-0.131341 -0.101526 0.974671 
-0.222327 -0.0995726 0.971867 
-0.220666 -0.0995726 0.971867 
-0.219005 -0.0995726 0.971867 
-0.217971 -0.0998599 0.974671 
-0.216305 -0.0998599 0.974671 
-0.21526 -0.100149 0.97749 
-0.213589 -0.100149 0.97749 
-0.211918 -0.100149 0.97749 
-0.210247 -0.100149 0.97749 
-0.209182 -0.100439 0.980326 
-0.207506 -0.100439 0.980326 
-0.206429 -0.100732 0.983179 
-0.204749 -0.100732 0.983179 
-0.203068 -0.100732 0.983179 
-0.201976 -0.101026 0.986048 
-0.20029 -0.101026 0.986048 
-0.198605 -0.101026 0.986048 
-0.196919 -0.101026 0.986048 
-0.195805 -0.101321 0.988934 
-0.194115 -0.101321 0.988934 
-0.19299 -0.101619 0.991837 
-0.191294 -0.101619 0.991837 
-0.190157 -0.101918 0.994757 
-0.187904 -0.101619 0.991837 
-0.186757 -0.101918 0.994757 
-0.185603 -0.102219 0.997695 
-0.183897 -0.102219 0.997695 
-0.181656 -0.101918 0.994757 
-0.179955 -0.101918 0.994757 
-0.177732 -0.101619 0.991837 
-0.176037 -0.101619 0.991837 
-0.173831 -0.101321 0.988934 
-0.172141 -0.101321 0.988934 
-0.17045 -0.101321 0.988934 
-0.16876 -0.101321 0.988934 
-0.16707 -0.101321 0.988934 
-0.165379 -0.101321 0.988934 
-0.163689 -0.101321 0.988934 
-0.161999 -0.101321 0.988934 
-0.160308 -0.101321 0.988934 
-0.158618 -0.101321 0.988934 
-0.15647 -0.101026 0.986048 
-0.154334 -0.100732 0.983179 
-0.152653 -0.100732 0.983179 
-0.150535 -0.100439 0.980326 
-0.148859 -0.100439 0.980326 
-0.146758 -0.100149 0.97749 
-0.145087 -0.100149 0.97749 
-0.143416 -0.100149 0.97749 
-0.141337 -0.0998599 0.974671 
-0.139671 -0.0998599 0.974671 
-0.138404 -0.100149 0.97749 
-0.136733 -0.100149 0.97749 
-0.134673 -0.0998599 0.974671 
-0.133392 -0.100149 0.97749 
-0.131341 -0.0998599 0.974671 
-0.222327 -0.0979115 0.971867 
-0.220666 -0.0979115 0.971867 
-0.218377 -0.0976306 0.96908 
-0.217344 -0.0979115 0.971867 
-0.216305 -0.0981939 0.974671 
-0.214639 -0.0981939 0.974671 
-0.213589 -0.098478 0.97749 
-0.211918 -0.098478 0.97749 
-0.210247 -0.098478 0.97749 
-0.209182 -0.0987637 0.980326 
-0.207506 -0.0987637 0.980326 
-0.20583 -0.0987637 0.980326 
-0.204749 -0.0990511 0.983179 
-0.203068 -0.0990511 0.983179 
-0.201976 -0.0993402 0.986048 
-0.20029 -0.0993402 0.986048 
-0.198605 -0.0993402 0.986048 
-0.196919 -0.0993402 0.986048 
-0.195234 -0.0993402 0.986048 
-0.193549 -0.0993402 0.986048 
-0.192425 -0.0996309 0.988934 
-0.190734 -0.0996309 0.988934 
-0.189599 -0.0999234 0.991837 
-0.187904 -0.0999234 0.991837 
-0.186208 -0.0999234 0.991837 
-0.185056 -0.100218 0.994757 
-0.183356 -0.100218 0.994757 
-0.181656 -0.100218 0.994757 
-0.179427 -0.0999234 0.991837 
-0.177732 -0.0999234 0.991837 
-0.176037 -0.0999234 0.991837 
-0.173831 -0.0996309 0.988934 
-0.172141 -0.0996309 0.988934 
-0.17045 -0.0996309 0.988934 
-0.16876 -0.0996309 0.988934 
-0.16707 -0.0996309 0.988934 
-0.165379 -0.0996309 0.988934 
-0.163689 -0.0996309 0.988934 
-0.161526 -0.0993402 0.986048 
-0.15984 -0.0993402 0.986048 
-0.158155 -0.0993402 0.986048 
-0.15647 -0.0993402 0.986048 
-0.154334 -0.0990511 0.983179 
-0.152653 -0.0990511 0.983179 
-0.150973 -0.0990511 0.983179 
-0.148859 -0.0987637 0.980326 
-0.146758 -0.098478 0.97749 
-0.145087 -0.098478 0.97749 
-0.143416 -0.098478 0.97749 
-0.141337 -0.0981939 0.974671 
-0.139671 -0.0981939 0.974671 
-0.138404 -0.098478 0.97749 
-0.136733 -0.098478 0.97749 
-0.134673 -0.0981939 0.974671 
-0.133392 -0.098478 0.97749 
-0.131341 -0.0981939 0.974671 
-0.223346 -0.0959742 0.96908 
-0.222327 -0.0962503 0.971867 
-0.220666 -0.0962503 0.971867 
-0.219005 -0.0962503 0.971867 
-0.217344 -0.0962503 0.971867 
-0.216305 -0.0965279 0.974671 
-0.214639 -0.0965279 0.974671 
-0.212973 -0.0965279 0.974671 
-0.211307 -0.0965279 0.974671 
-0.210247 -0.0968072 0.97749 
-0.208577 -0.0968072 0.97749 
-0.206906 -0.0968072 0.97749 
-0.20583 -0.0970881 0.980326 
-0.204155 -0.0970881 0.980326 
-0.203068 -0.0973706 0.983179 
-0.201388 -0.0973706 0.983179 
-0.199707 -0.0973706 0.983179 
-0.198605 -0.0976548 0.986048 
-0.196346 -0.0973706 0.983179 
-0.195234 -0.0976548 0.986048 
-0.193549 -0.0976548 0.986048 
-0.192425 -0.0979406 0.988934 
-0.190734 -0.0979406 0.988934 
-0.189044 -0.0979406 0.988934 
-0.187904 -0.0982281 0.991837 
-0.186208 -0.0982281 0.991837 
-0.185056 -0.0985173 0.994757 
-0.183356 -0.0985173 0.994757 
-0.181656 -0.0985173 0.994757 
-0.179427 -0.0982281 0.991837 
-0.177732 -0.0982281 0.991837 
-0.176037 -0.0982281 0.991837 
-0.174341 -0.0982281 0.991837 
-0.172141 -0.0979406 0.988934 
-0.17045 -0.0979406 0.988934 
-0.168268 -0.0976548 0.986048 
-0.16707 -0.0979406 0.988934 
-0.164897 -0.0976548 0.986048 
-0.163211 -0.0976548 0.986048 
-0.161056 -0.0973706 0.983179 
-0.159375 -0.0973706 0.983179 
-0.157695 -0.0973706 0.983179 
-0.156014 -0.0973706 0.983179 
-0.154334 -0.0973706 0.983179 
-0.15221 -0.0970881 0.980326 
-0.150535 -0.0970881 0.980326 
-0.148859 -0.0970881 0.980326 
-0.147184 -0.0970881 0.980326 
-0.145087 -0.0968072 0.97749 
-0.143416 -0.0968072 0.97749 
-0.141745 -0.0968072 0.97749 
-0.140075 -0.0968072 0.97749 
-0.138404 -0.0968072 0.97749 
-0.136733 -0.0968072 0.97749 
-0.134673 -0.0965279 0.974671 
-0.133392 -0.0968072 0.97749 
-0.131721 -0.0968072 0.97749 
-0.13005 -0.0968072 0.97749 
-0.223346 -0.0943178 0.96908 
-0.222327 -0.0945891 0.971867 
-0.220666 -0.0945891 0.971867 
-0.218377 -0.0943178 0.96908 
-0.21672 -0.0943178 0.96908 
-0.215682 -0.0945891 0.971867 
-0.214021 -0.0945891 0.971867 
-0.212973 -0.094862 0.974671 
-0.211307 -0.094862 0.974671 
-0.209641 -0.094862 0.974671 
-0.208577 -0.0951364 0.97749 
-0.206906 -0.0951364 0.97749 
-0.205235 -0.0951364 0.97749 
-0.203564 -0.0951364 0.97749 
-0.202479 -0.0954125 0.980326 
-0.200804 -0.0954125 0.980326 
-0.199707 -0.0956901 0.983179 
-0.198027 -0.0956901 0.983179 
-0.196346 -0.0956901 0.983179 
-0.194666 -0.0956901 0.983179 
-0.193549 -0.0959694 0.986048 
-0.192425 -0.0962502 0.988934 
-0.190178 -0.0959694 0.986048 
-0.189044 -0.0962502 0.988934 
-0.187354 -0.0962502 0.988934 
-0.185663 -0.0962502 0.988934 
-0.184513 -0.0965328 0.991837 
-0.182818 -0.0965328 0.991837 
-0.181122 -0.0965328 0.991837 
-0.178902 -0.0962502 0.988934 
-0.177732 -0.0965328 0.991837 
-0.175521 -0.0962502 0.988934 
-0.173831 -0.0962502 0.988934 
-0.172141 -0.0962502 0.988934 
-0.169953 -0.0959694 0.986048 
-0.168268 -0.0959694 0.986048 
-0.166582 -0.0959694 0.986048 
-0.164897 -0.0959694 0.986048 
-0.162736 -0.0956901 0.983179 
-0.161056 -0.0956901 0.983179 
-0.158913 -0.0954125 0.980326 
-0.157695 -0.0956901 0.983179 
-0.155562 -0.0954125 0.980326 
-0.153886 -0.0954125 0.980326 
-0.15221 -0.0954125 0.980326 
-0.150535 -0.0954125 0.980326 
-0.148859 -0.0954125 0.980326 
-0.147184 -0.0954125 0.980326 
-0.145508 -0.0954125 0.980326 
-0.143416 -0.0951364 0.97749 
-0.141745 -0.0951364 0.97749 
-0.140075 -0.0951364 0.97749 
-0.138805 -0.0954125 0.980326 
-0.136733 -0.0951364 0.97749 
-0.135062 -0.0951364 0.97749 
-0.133779 -0.0954125 0.980326 
-0.223346 -0.0926614 0.96908 
-0.221689 -0.0926614 0.96908 
-0.220033 -0.0926614 0.96908 
-0.218377 -0.0926614 0.96908 
-0.21672 -0.0926614 0.96908 
-0.215682 -0.092928 0.971867 
-0.214021 -0.092928 0.971867 
-0.212973 -0.093196 0.974671 
-0.211307 -0.093196 0.974671 
-0.210247 -0.0934657 0.97749 
-0.208577 -0.0934657 0.97749 
-0.206906 -0.0934657 0.97749 
-0.205235 -0.0934657 0.97749 
-0.203564 -0.0934657 0.97749 
-0.202479 -0.0937368 0.980326 
-0.200804 -0.0937368 0.980326 
-0.199128 -0.0937368 0.980326 
-0.197452 -0.0937368 0.980326 
-0.195777 -0.0937368 0.980326 
-0.194666 -0.0940096 0.983179 
-0.193549 -0.0942839 0.986048 
-0.191863 -0.0942839 0.986048 
-0.190178 -0.0942839 0.986048 
-0.189044 -0.0945599 0.988934 
-0.187354 -0.0945599 0.988934 
-0.185663 -0.0945599 0.988934 
-0.184513 -0.0948375 0.991837 
-0.182818 -0.0948375 0.991837 
-0.180592 -0.0945599 0.988934 
-0.178902 -0.0945599 0.988934 
-0.177212 -0.0945599 0.988934 
-0.175521 -0.0945599 0.988934 
-0.173831 -0.0945599 0.988934 
-0.172141 -0.0945599 0.988934 
-0.169953 -0.0942839 0.986048 
-0.167778 -0.0940096 0.983179 
-0.166097 -0.0940096 0.983179 
-0.164417 -0.0940096 0.983179 
-0.162736 -0.0940096 0.983179 
-0.160589 -0.0937368 0.980326 
-0.158913 -0.0937368 0.980326 
-0.157237 -0.0937368 0.980326 
-0.155562 -0.0937368 0.980326 
-0.153886 -0.0937368 0.980326 
-0.15221 -0.0937368 0.980326 
-0.150535 -0.0937368 0.980326 
-0.148859 -0.0937368 0.980326 
-0.147184 -0.0937368 0.980326 
-0.145508 -0.0937368 0.980326 
-0.143416 -0.0934657 0.97749 
-0.141745 -0.0934657 0.97749 
-0.140075 -0.0934657 0.97749 
-0.138805 -0.0937368 0.980326 
-0.136733 -0.0934657 0.97749 
-0.135062 -0.0934657 0.97749 
-0.220666 -0.0912668 0.971867 
-0.219005 -0.0912668 0.971867 
-0.217344 -0.0912668 0.971867 
-0.216305 -0.0915301 0.974671 
-0.214639 -0.0915301 0.974671 
-0.212973 -0.0915301 0.974671 
-0.211307 -0.0915301 0.974671 
-0.210247 -0.0917949 0.97749 
-0.208577 -0.0917949 0.97749 
-0.206906 -0.0917949 0.97749 
-0.205235 -0.0917949 0.97749 
-0.203564 -0.0917949 0.97749 
-0.202479 -0.0920612 0.980326 
-0.200804 -0.0920612 0.980326 
-0.199128 -0.0920612 0.980326 
-0.197452 -0.0920612 0.980326 
-0.195777 -0.0920612 0.980326 
-0.194101 -0.0920612 0.980326 
-0.192985 -0.0923291 0.983179 
-0.191863 -0.0925985 0.986048 
-0.189624 -0.0923291 0.983179 
-0.187944 -0.0923291 0.983179 
-0.186263 -0.0923291 0.983179 
-0.185122 -0.0925985 0.986048 
-0.183973 -0.0928696 0.988934 
-0.182283 -0.0928696 0.988934 
-0.180065 -0.0925985 0.986048 
-0.17838 -0.0925985 0.986048 
-0.176695 -0.0925985 0.986048 
-0.175009 -0.0925985 0.986048 
-0.173324 -0.0925985 0.986048 
-0.171638 -0.0925985 0.986048 
-0.169458 -0.0923291 0.983179 
-0.167291 -0.0920612 0.980326 
-0.166097 -0.0923291 0.983179 
-0.164417 -0.0923291 0.983179 
-0.162736 -0.0923291 0.983179 
-0.160589 -0.0920612 0.980326 
-0.158913 -0.0920612 0.980326 
-0.157237 -0.0920612 0.980326 
-0.155562 -0.0920612 0.980326 
-0.153886 -0.0920612 0.980326 
-0.15221 -0.0920612 0.980326 
-0.150535 -0.0920612 0.980326 
-0.148859 -0.0920612 0.980326 
-0.146758 -0.0917949 0.97749 
-0.145087 -0.0917949 0.97749 
-0.143003 -0.0915301 0.974671 
-0.141745 -0.0917949 0.97749 
-0.140075 -0.0917949 0.97749 
-0.138404 -0.0917949 0.97749 
-0.136339 -0.0915301 0.974671 
-0.134673 -0.0915301 0.974671 
-0.220666 -0.0896056 0.971867 
-0.219005 -0.0896056 0.971867 
-0.217344 -0.0896056 0.971867 
-0.215682 -0.0896056 0.971867 
-0.214021 -0.0896056 0.971867 
-0.212973 -0.0898641 0.974671 
-0.210699 -0.0896056 0.971867 
-0.209641 -0.0898641 0.974671 
-0.208577 -0.0901241 0.97749 
-0.206906 -0.0901241 0.97749 
-0.205235 -0.0901241 0.97749 
-0.203564 -0.0901241 0.97749 
-0.202479 -0.0903856 0.980326 
-0.200804 -0.0903856 0.980326 
-0.199128 -0.0903856 0.980326 
-0.197452 -0.0903856 0.980326 
-0.195777 -0.0903856 0.980326 
-0.194101 -0.0903856 0.980326 
-0.192985 -0.0906486 0.983179 
-0.191305 -0.0906486 0.983179 
-0.189624 -0.0906486 0.983179 
-0.187399 -0.0903856 0.980326 
-0.186263 -0.0906486 0.983179 
-0.185122 -0.0909131 0.986048 
-0.183436 -0.0909131 0.986048 
-0.181751 -0.0909131 0.986048 
-0.179541 -0.0906486 0.983179 
-0.177861 -0.0906486 0.983179 
-0.17618 -0.0906486 0.983179 
-0.175009 -0.0909131 0.986048 
-0.173324 -0.0909131 0.986048 
-0.171139 -0.0906486 0.983179 
-0.169458 -0.0906486 0.983179 
-0.167291 -0.0903856 0.980326 
-0.166097 -0.0906486 0.983179 
-0.16394 -0.0903856 0.980326 
-0.162264 -0.0903856 0.980326 
-0.160589 -0.0903856 0.980326 
-0.158913 -0.0903856 0.980326 
-0.157237 -0.0903856 0.980326 
-0.155562 -0.0903856 0.980326 
-0.153886 -0.0903856 0.980326 
-0.15221 -0.0903856 0.980326 
-0.150535 -0.0903856 0.980326 
-0.148859 -0.0903856 0.980326 
-0.147184 -0.0903856 0.980326 
-0.145508 -0.0903856 0.980326 
-0.143416 -0.0901241 0.97749 
-0.142157 -0.0903856 0.980326 
-0.220666 -0.0879445 0.971867 
-0.219005 -0.0879445 0.971867 
-0.217344 -0.0879445 0.971867 
-0.215682 -0.0879445 0.971867 
-0.214021 -0.0879445 0.971867 
-0.21236 -0.0879445 0.971867 
-0.210699 -0.0879445 0.971867 
-0.209641 -0.0881982 0.974671 
-0.208577 -0.0884533 0.97749 
-0.206906 -0.0884533 0.97749 
-0.205235 -0.0884533 0.97749 
-0.202977 -0.0881982 0.974671 
-0.201893 -0.0884533 0.97749 
-0.200223 -0.0884533 0.97749 
-0.198552 -0.0884533 0.97749 
-0.196881 -0.0884533 0.97749 
-0.19521 -0.0884533 0.97749 
-0.19354 -0.0884533 0.97749 
-0.192425 -0.08871 0.980326 
-0.19075 -0.08871 0.980326 
-0.189074 -0.08871 0.980326 
-0.187399 -0.08871 0.980326 
-0.185723 -0.08871 0.980326 
-0.184583 -0.0889681 0.983179 
-0.182372 -0.08871 0.980326 
-0.181222 -0.0889681 0.983179 
-0.17902 -0.08871 0.980326 
-0.177345 -0.08871 0.980326 
-0.175669 -0.08871 0.980326 
-0.1745 -0.0889681 0.983179 
-0.172819 -0.0889681 0.983179 
-0.170642 -0.08871 0.980326 
-0.168967 -0.08871 0.980326 
-0.167291 -0.08871 0.980326 
-0.166097 -0.0889681 0.983179 
-0.16394 -0.08871 0.980326 
-0.162264 -0.08871 0.980326 
-0.160589 -0.08871 0.980326 
-0.158913 -0.08871 0.980326 
-0.156782 -0.0884533 0.97749 
-0.155112 -0.0884533 0.97749 
-0.153441 -0.0884533 0.97749 
-0.15221 -0.08871 0.980326 
-0.150535 -0.08871 0.980326 
-0.148859 -0.08871 0.980326 
-0.147184 -0.08871 0.980326 
-0.145508 -0.08871 0.980326 
-0.143416 -0.0884533 0.97749 
-0.222327 -0.0862833 0.971867 
-0.220666 -0.0862833 0.971867 
-0.219005 -0.0862833 0.971867 
-0.217344 -0.0862833 0.971867 
-0.215682 -0.0862833 0.971867 
-0.214021 -0.0862833 0.971867 
-0.21236 -0.0862833 0.971867 
-0.210699 -0.0862833 0.971867 
-0.209038 -0.0862833 0.971867 
-0.207975 -0.0865322 0.974671 
-0.206906 -0.0867825 0.97749 
-0.204643 -0.0865322 0.974671 
-0.202393 -0.0862833 0.971867 
-0.201311 -0.0865322 0.974671 
-0.200223 -0.0867825 0.97749 
-0.197979 -0.0865322 0.974671 
-0.196881 -0.0867825 0.97749 
-0.19521 -0.0867825 0.97749 
-0.19354 -0.0867825 0.97749 
-0.192425 -0.0870343 0.980326 
-0.19075 -0.0870343 0.980326 
-0.189074 -0.0870343 0.980326 
-0.186856 -0.0867825 0.97749 
-0.185186 -0.0867825 0.97749 
-0.184047 -0.0870343 0.980326 
-0.181844 -0.0867825 0.97749 
-0.180696 -0.0870343 0.980326 
-0.178503 -0.0867825 0.97749 
-0.176832 -0.0867825 0.97749 
-0.175161 -0.0867825 0.97749 
-0.173994 -0.0870343 0.980326 
-0.172318 -0.0870343 0.980326 
-0.170642 -0.0870343 0.980326 
-0.168967 -0.0870343 0.980326 
-0.166807 -0.0867825 0.97749 
-0.165615 -0.0870343 0.980326 
-0.16394 -0.0870343 0.980326 
-0.162264 -0.0870343 0.980326 
-0.160589 -0.0870343 0.980326 
-0.158913 -0.0870343 0.980326 
-0.157237 -0.0870343 0.980326 
-0.155562 -0.0870343 0.980326 
-0.153886 -0.0870343 0.980326 
-0.15221 -0.0870343 0.980326 
-0.150535 -0.0870343 0.980326 
-0.148859 -0.0870343 0.980326 
-0.147184 -0.0870343 0.980326 
-0.209641 -0.0848662 0.974671 
-0.208577 -0.0851118 0.97749 
-0.206906 -0.0851118 0.97749 
-0.204643 -0.0848662 0.974671 
-0.201311 -0.0848662 0.974671 
-0.199645 -0.0848662 0.974671 
-0.197979 -0.0848662 0.974671 
-0.196313 -0.0848662 0.974671 
-0.194647 -0.0848662 0.974671 
-0.19354 -0.0851118 0.97749 
-0.191869 -0.0851118 0.97749 
-0.19075 -0.0853587 0.980326 
-0.188527 -0.0851118 0.97749 
-0.186856 -0.0851118 0.97749 
-0.185186 -0.0851118 0.97749 
-0.183515 -0.0851118 0.97749 
-0.181844 -0.0851118 0.97749 
-0.180173 -0.0851118 0.97749 
-0.178503 -0.0851118 0.97749 
-0.176832 -0.0851118 0.97749 
-0.175161 -0.0851118 0.97749 
-0.17349 -0.0851118 0.97749 
-0.172318 -0.0853587 0.980326 
-0.170149 -0.0851118 0.97749 
-0.168478 -0.0851118 0.97749 
-0.166807 -0.0851118 0.97749 
-0.165615 -0.0853587 0.980326 
-0.16394 -0.0853587 0.980326 
-0.162264 -0.0853587 0.980326 
-0.160124 -0.0851118 0.97749 
-0.158453 -0.0851118 0.97749 
-0.157237 -0.0853587 0.980326 
-0.155562 -0.0853587 0.980326 
-0.153886 -0.0853587 0.980326 
-0.15221 -0.0853587 0.980326 
-0.150535 -0.0853587 0.980326 
-0.211307 -0.0832003 0.974671 
-0.209641 -0.0832003 0.974671 
-0.208577 -0.083441 0.97749 
-0.206906 -0.083441 0.97749 
-0.204643 -0.0832003 0.974671 
-0.202977 -0.0832003 0.974671 
-0.201311 -0.0832003 0.974671 
-0.199645 -0.0832003 0.974671 
-0.197979 -0.0832003 0.974671 
-0.196313 -0.0832003 0.974671 
-0.194647 -0.0832003 0.974671 
-0.192981 -0.0832003 0.974671 
-0.191869 -0.083441 0.97749 
-0.190198 -0.083441 0.97749 
-0.188527 -0.083441 0.97749 
-0.186317 -0.0832003 0.974671 
-0.185186 -0.083441 0.97749 
-0.183515 -0.083441 0.97749 
-0.181844 -0.083441 0.97749 
-0.180173 -0.083441 0.97749 
-0.177988 -0.0832003 0.974671 
-0.176322 -0.0832003 0.974671 
-0.174656 -0.0832003 0.974671 
-0.17349 -0.083441 0.97749 
-0.171819 -0.083441 0.97749 
-0.169658 -0.0832003 0.974671 
-0.167992 -0.0832003 0.974671 
-0.166326 -0.0832003 0.974671 
-0.165615 -0.0836831 0.980326 
-0.163466 -0.083441 0.97749 
-0.161795 -0.083441 0.97749 
-0.160124 -0.083441 0.97749 
-0.158453 -0.083441 0.97749 
-0.157237 -0.0836831 0.980326 
-0.155562 -0.0836831 0.980326 
-0.153886 -0.0836831 0.980326 
-0.15221 -0.0836831 0.980326 
-0.209641 -0.0815343 0.974671 
-0.208577 -0.0817702 0.97749 
-0.206906 -0.0817702 0.97749 
-0.204643 -0.0815343 0.974671 
-0.202977 -0.0815343 0.974671 
-0.201311 -0.0815343 0.974671 
-0.199645 -0.0815343 0.974671 
-0.197979 -0.0815343 0.974671 
-0.196313 -0.0815343 0.974671 
-0.191315 -0.0815343 0.974671 
-0.189649 -0.0815343 0.974671 
-0.187983 -0.0815343 0.974671 
-0.186317 -0.0815343 0.974671 
-0.184651 -0.0815343 0.974671 
-0.182985 -0.0815343 0.974671 
-0.18132 -0.0815343 0.974671 
-0.179654 -0.0815343 0.974671 
-0.17299 -0.0815343 0.974671 
-0.171324 -0.0815343 0.974671 
-0.169658 -0.0815343 0.974671 
-0.167992 -0.0815343 0.974671 
-0.166326 -0.0815343 0.974671 
-0.165136 -0.0817702 0.97749 
-0.163466 -0.0817702 0.97749 
-0.161795 -0.0817702 0.97749 
-0.160124 -0.0817702 0.97749 
-0.158453 -0.0817702 0.97749 
-0.156782 -0.0817702 0.97749 
-0.155562 -0.0820075 0.980326 
-0.211307 -0.0798684 0.974671 
-0.209641 -0.0798684 0.974671 
-0.207975 -0.0798684 0.974671 
-0.206309 -0.0798684 0.974671 
-0.204643 -0.0798684 0.974671 
-0.191315 -0.0798684 0.974671 
-0.189649 -0.0798684 0.974671 
-0.187983 -0.0798684 0.974671 
-0.186317 -0.0798684 0.974671 
-0.184651 -0.0798684 0.974671 
-0.182985 -0.0798684 0.974671 
-0.171324 -0.0798684 0.974671 
-0.167992 -0.0798684 0.974671 
-0.166326 -0.0798684 0.974671 
-0.165136 -0.0800994 0.97749 
-0.163466 -0.0800994 0.97749 
-0.156782 -0.0800994 0.97749 
-0.155112 -0.0800994 0.97749 
-0.153441 -0.0800994 0.97749 
-0.165136 -0.0784287 0.97749 
-0.155112 -0.0784287 0.97749 
